<?xml version="1.0" standalone="no"?>
<!DOCTYPE svg PUBLIC "-//W3C//DTD SVG 20010904//EN"
 "http://www.w3.org/TR/2001/REC-SVG-20010904/DTD/svg10.dtd">
<svg version="1.0" xmlns="http://www.w3.org/2000/svg"
 width="1280.000000pt" height="844.000000pt" viewBox="0 0 1280.000000 844.000000"
 preserveAspectRatio="xMidYMid meet">
<metadata>
Created by potrace 1.15, written by Peter Selinger 2001-2017
</metadata>
<g transform="translate(0.000000,844.000000) scale(0.100000,-0.100000)"
fill="#000000" stroke="none">
<path d="M7200 8433 c-14 -2 -49 -11 -77 -19 l-53 -15 0 -80 c0 -73 2 -80 18
-74 73 31 146 47 219 48 l83 2 0 66 c0 52 -4 68 -16 73 -17 6 -133 6 -174 -1z"/>
<path d="M7400 8361 l0 -70 57 -16 c74 -22 145 -58 211 -106 l52 -40 0 83 0
83 -43 26 c-67 42 -117 65 -191 88 -37 11 -72 21 -77 21 -5 0 -9 -31 -9 -69z"/>
<path d="M5570 8396 c-147 -46 -140 -40 -140 -124 0 -40 3 -71 8 -69 78 41
160 67 242 76 l55 6 3 68 3 67 -48 -1 c-26 0 -82 -11 -123 -23z"/>
<path d="M5760 8355 c0 -36 1 -65 3 -65 61 0 215 -56 277 -100 l30 -21 0 86 0
86 -52 24 c-69 31 -161 55 -215 55 l-43 0 0 -65z"/>
<path d="M6984 8356 c-79 -42 -147 -93 -203 -150 -61 -62 -53 -76 41 -76 65 0
78 4 118 31 25 16 62 39 83 50 l37 19 0 80 c0 44 -3 80 -7 80 -5 0 -36 -15
-69 -34z"/>
<path d="M5328 8284 c-74 -50 -168 -131 -168 -145 0 -5 39 -9 88 -9 79 1 91 3
125 28 39 28 39 28 40 100 1 43 -2 72 -8 72 -5 0 -40 -21 -77 -46z"/>
<path d="M6090 8242 c0 -55 4 -92 12 -100 14 -14 198 -17 198 -3 0 14 -117
128 -166 162 l-44 30 0 -89z"/>
<path d="M7730 8210 c0 -50 4 -72 13 -76 8 -3 45 -4 83 -2 l69 3 -74 73 c-41
39 -78 72 -82 72 -5 0 -9 -32 -9 -70z"/>
<path d="M10480 8155 l0 -25 100 0 100 0 0 25 0 25 -100 0 -100 0 0 -25z"/>
<path d="M10692 8158 c3 -20 9 -23 53 -23 44 0 50 3 53 23 3 21 0 22 -53 22
-53 0 -56 -1 -53 -22z"/>
<path d="M5116 8098 c-12 -17 -16 -49 -16 -131 l0 -109 42 63 c24 35 72 94
107 131 l63 68 -90 0 c-83 0 -92 -2 -106 -22z"/>
<path d="M6167 8083 c56 -60 123 -153 154 -215 24 -47 34 -58 54 -58 25 0 25
0 25 98 0 98 0 99 -38 153 l-38 54 -96 3 -96 3 35 -38z"/>
<path d="M6631 8038 c-33 -46 -77 -112 -98 -147 l-37 -63 -35 71 c-20 39 -39
71 -43 71 -4 0 -8 -36 -8 -79 l0 -79 43 -3 c23 -2 74 -2 114 1 l72 5 45 70
c45 68 46 72 46 153 0 74 -2 82 -19 82 -13 0 -40 -28 -80 -82z"/>
<path d="M6740 8048 l0 -72 70 69 c39 38 70 71 70 72 0 2 -31 3 -70 3 l-70 0
0 -72z"/>
<path d="M7764 8079 c50 -54 104 -140 131 -208 l23 -56 67 -3 68 -3 -7 33 c-8
44 -69 171 -109 230 l-32 48 -89 0 -88 0 36 -41z"/>
<path d="M10073 8113 l-33 -4 0 -150 0 -149 155 0 155 0 0 155 0 155 -122 -2
c-68 0 -138 -3 -155 -5z"/>
<path d="M10368 7965 l-3 -155 158 0 157 0 0 155 0 155 -155 0 -154 0 -3 -155z"/>
<path d="M10690 7965 l0 -155 160 0 160 0 0 155 0 155 -160 0 -160 0 0 -155z"/>
<path d="M11020 7965 l0 -155 160 0 161 0 -3 137 -3 137 -85 18 c-47 9 -118
17 -157 18 l-73 0 0 -155z"/>
<path d="M2168 8093 l-27 -4 -3 -140 -3 -139 158 0 157 0 0 145 0 145 -127 -1
c-71 -1 -140 -4 -155 -6z"/>
<path d="M2460 7956 l0 -146 160 0 160 0 0 134 0 134 -27 6 c-16 3 -88 9 -160
13 l-133 6 0 -147z"/>
<path d="M9858 8058 l-148 -41 0 -103 0 -104 155 0 155 0 0 145 c0 80 -3 145
-7 144 -5 0 -74 -19 -155 -41z"/>
<path d="M2060 8083 c-14 -2 -76 -13 -137 -25 l-113 -20 0 -114 0 -114 155 0
155 0 0 140 c0 153 4 144 -60 133z"/>
<path d="M2795 8072 c-3 -3 -5 -63 -5 -134 l0 -128 160 0 161 0 -3 97 -3 98
-60 16 c-105 28 -244 57 -250 51z"/>
<path d="M11350 7946 l0 -136 160 0 161 0 -3 73 -3 72 -135 56 c-74 31 -145
59 -157 63 l-23 7 0 -135z"/>
<path d="M5056 8020 c-72 -114 -86 -138 -101 -173 l-15 -37 70 0 c49 0 72 4
76 13 2 7 3 65 2 128 l-3 114 -29 -45z"/>
<path d="M1755 8025 c-5 -2 -70 -22 -142 -45 l-133 -43 0 -63 0 -64 155 0 155
0 0 110 c0 110 -2 116 -35 105z"/>
<path d="M9535 7950 l-150 -58 -3 -41 -3 -41 155 0 156 0 0 100 c0 55 -1 99
-2 99 -2 -1 -70 -27 -153 -59z"/>
<path d="M3120 7906 l0 -96 160 0 160 0 0 44 0 43 -137 45 c-76 25 -148 49
-160 53 -23 6 -23 5 -23 -89z"/>
<path d="M11680 7875 l0 -65 112 0 c128 0 129 -6 -12 79 -46 28 -87 51 -92 51
-4 0 -8 -29 -8 -65z"/>
<path d="M1334 7866 l-109 -55 123 0 122 -1 0 55 c0 39 -4 55 -13 55 -8 0 -63
-24 -123 -54z"/>
<path d="M3450 7850 l0 -40 108 0 107 1 -104 39 c-57 22 -105 40 -107 40 -2 0
-4 -18 -4 -40z"/>
<path d="M9275 7845 l-80 -34 88 -1 87 0 0 35 c0 19 -3 35 -7 35 -5 -1 -44
-16 -88 -35z"/>
<path d="M1168 7779 c-16 -9 -18 -27 -18 -154 l0 -145 160 0 160 0 0 155 0
155 -142 0 c-79 0 -151 -5 -160 -11z"/>
<path d="M1480 7635 l0 -155 155 0 155 0 0 155 0 155 -155 0 -155 0 0 -155z"/>
<path d="M1810 7635 l0 -155 155 0 155 0 0 155 0 155 -155 0 -155 0 0 -155z"/>
<path d="M2135 7635 l0 -155 158 0 157 0 0 155 0 155 -157 0 -158 0 0 -155z"/>
<path d="M2461 7635 l-2 -155 161 0 160 0 0 155 0 155 -159 0 -159 0 -1 -155z"/>
<path d="M2790 7635 l0 -155 112 0 c109 0 113 1 160 33 l47 32 1 123 0 122
-160 0 -160 0 0 -155z"/>
<path d="M3120 7675 c0 -63 2 -115 5 -115 3 0 31 13 63 29 68 34 202 81 231
81 19 0 21 6 21 60 l0 60 -160 0 -160 0 0 -115z"/>
<path d="M3450 7735 l0 -54 93 1 c69 0 107 -5 154 -21 34 -11 65 -21 68 -21 3
0 5 29 5 64 0 63 -1 64 -31 75 -18 6 -90 11 -160 11 l-129 0 0 -55z"/>
<path d="M4916 7725 c-9 -35 -16 -104 -16 -155 l0 -90 69 0 69 0 -5 83 c-5 76
6 146 32 210 6 15 0 17 -63 17 l-70 0 -16 -65z"/>
<path d="M6410 7635 l0 -155 91 0 c90 0 91 0 85 23 -4 12 -9 52 -13 89 -5 60
-3 72 25 132 l31 66 -110 0 -109 0 0 -155z"/>
<path d="M7932 7738 c12 -63 5 -157 -16 -215 l-15 -43 74 0 75 0 0 155 0 155
-64 0 -63 0 9 -52z"/>
<path d="M9103 7762 l-53 -26 0 -74 0 -74 33 20 c96 57 156 87 216 107 57 19
66 26 69 49 l3 26 -108 -1 c-96 0 -114 -3 -160 -27z"/>
<path d="M9380 7763 l0 -28 78 -1 c66 -1 161 -19 217 -40 12 -5 15 3 15 45 l0
51 -155 0 -155 0 0 -27z"/>
<path d="M9710 7737 l0 -54 74 -37 c158 -80 286 -215 369 -388 l52 -108 73 0
72 0 0 158 0 157 -142 -3 c-78 -2 -153 -1 -165 3 -23 5 -23 7 -23 165 l0 160
-155 0 -155 0 0 -53z"/>
<path d="M10040 7635 l0 -155 155 0 155 0 0 155 0 155 -155 0 -155 0 0 -155z"/>
<path d="M10368 7635 l3 -155 154 0 155 0 0 155 0 155 -157 0 -158 0 3 -155z"/>
<path d="M10690 7635 l0 -155 160 0 160 0 0 155 0 155 -160 0 -160 0 0 -155z"/>
<path d="M11020 7635 l0 -155 160 0 160 0 0 155 0 155 -160 0 -160 0 0 -155z"/>
<path d="M11350 7635 l0 -155 160 0 160 0 0 155 0 155 -160 0 -160 0 0 -155z"/>
<path d="M11680 7635 l0 -155 160 0 160 0 0 128 0 127 -34 28 c-34 26 -39 27
-160 27 l-126 0 0 -155z"/>
<path d="M3780 7696 l0 -66 43 -21 c23 -12 77 -46 119 -75 62 -44 85 -54 118
-54 l40 0 0 50 c0 50 0 50 -55 85 -30 20 -102 60 -160 91 l-105 56 0 -66z"/>
<path d="M1023 7677 c-175 -131 -377 -334 -493 -497 l-21 -30 150 0 151 0 0
165 0 165 165 0 165 0 0 135 c0 76 -4 135 -9 135 -5 0 -54 -33 -108 -73z"/>
<path d="M8924 7667 c-173 -103 -204 -127 -204 -158 l0 -29 93 0 c81 0 96 3
112 20 10 11 40 34 66 51 l49 31 0 69 c0 50 -4 69 -13 69 -7 0 -53 -24 -103
-53z"/>
<path d="M12010 7601 l0 -121 122 0 122 0 -34 38 c-87 94 -157 165 -182 183
l-28 20 0 -120z"/>
<path d="M7407 7684 c-4 -4 -7 -36 -7 -71 0 -59 1 -63 23 -63 34 0 70 -29 64
-51 -5 -17 1 -19 64 -19 l69 0 0 33 c0 45 -49 117 -97 144 -42 24 -104 38
-116 27z"/>
<path d="M7330 7664 c-45 -19 -97 -69 -121 -116 -32 -63 -28 -68 49 -68 64 0
70 2 100 33 30 30 32 38 32 100 0 74 -3 76 -60 51z"/>
<path d="M5468 7649 l-38 -19 0 -75 c0 -62 3 -75 16 -75 9 0 23 9 32 20 10 11
33 23 53 26 28 5 41 1 66 -20 26 -22 41 -26 89 -26 l59 0 -1 41 c-2 53 -30 90
-95 123 -64 32 -128 33 -181 5z"/>
<path d="M9393 7623 c-9 -3 -13 -28 -13 -74 l0 -69 155 0 155 0 0 35 c0 29 -6
38 -42 63 -24 16 -58 34 -77 40 -34 12 -154 15 -178 5z"/>
<path d="M5376 7573 c-14 -21 -28 -50 -31 -65 -7 -27 -5 -28 28 -28 l35 0 4
65 c1 36 0 65 -4 65 -4 0 -19 -17 -32 -37z"/>
<path d="M9305 7579 c-40 -30 -84 -78 -85 -91 0 -5 34 -8 75 -8 l75 0 0 65 c0
75 -6 79 -65 34z"/>
<path d="M6381 7533 c-30 -137 -59 -282 -65 -330 l-7 -53 46 0 45 0 0 220 c0
121 -1 220 -3 220 -2 0 -9 -26 -16 -57z"/>
<path d="M3375 7552 c-27 -10 -68 -30 -90 -45 l-40 -27 98 0 97 0 0 45 c0 25
-3 45 -7 45 -5 -1 -30 -8 -58 -18z"/>
<path d="M3450 7526 l0 -46 113 0 c104 1 111 2 92 16 -33 27 -117 63 -162 70
l-43 7 0 -47z"/>
<path d="M4110 7525 l0 -45 72 0 73 0 -67 45 c-37 25 -70 45 -73 45 -3 0 -5
-20 -5 -45z"/>
<path d="M7360 7468 l-22 -52 25 -50 26 -51 0 103 c1 56 -1 102 -3 102 -2 0
-14 -23 -26 -52z"/>
<path d="M1633 7463 l-153 -4 0 -147 0 -147 108 0 c59 0 128 -4 155 -8 l47 -8
0 160 c0 89 -1 160 -2 159 -2 -1 -72 -4 -155 -5z"/>
<path d="M2793 7454 c-2 -6 -2 -57 -1 -114 l3 -103 58 76 c32 42 76 92 98 111
21 20 39 37 39 38 0 9 -193 1 -197 -8z"/>
<path d="M4040 7463 c0 -6 52 -83 56 -83 2 0 4 17 4 39 0 35 -3 39 -30 43 -16
3 -30 3 -30 1z"/>
<path d="M4188 7462 l-78 -3 0 -61 c0 -34 10 -104 22 -155 l22 -93 68 0 c41 0
68 4 68 11 0 6 -16 44 -35 85 -19 42 -30 74 -25 72 5 -2 52 -40 105 -86 l95
-83 0 103 0 103 -57 40 c-98 69 -101 70 -185 67z"/>
<path d="M4910 7452 c0 -48 101 -224 159 -276 l21 -19 0 110 c0 87 -4 120 -19
153 l-19 42 -71 1 c-52 2 -71 -1 -71 -11z"/>
<path d="M5373 7462 c-23 -2 -33 -8 -33 -21 0 -19 55 -111 67 -111 8 0 9 129
2 133 -2 1 -19 1 -36 -1z"/>
<path d="M5430 7389 c0 -83 4 -88 68 -89 78 0 144 106 96 154 -18 19 -65 21
-81 5 -7 -7 -19 -8 -30 -4 -49 21 -53 17 -53 -66z"/>
<path d="M6414 7461 c-2 -2 -4 -49 -4 -103 0 -96 0 -98 24 -98 20 0 25 7 31
43 l8 42 8 -40 c4 -22 8 -66 8 -97 l1 -58 65 0 c76 0 71 -14 55 165 -15 164
-5 150 -105 150 -48 0 -89 -2 -91 -4z"/>
<path d="M7243 7462 l-63 -3 0 -48 c0 -65 33 -168 70 -219 29 -41 32 -42 85
-42 l55 0 0 36 c0 20 -8 48 -19 62 -38 54 -55 99 -60 157 l-6 60 -62 -3z"/>
<path d="M7407 7463 c-4 -3 -7 -34 -7 -69 0 -67 6 -74 59 -74 40 0 113 52 140
100 l22 40 -68 1 c-37 0 -84 2 -104 5 -19 2 -39 1 -42 -3z"/>
<path d="M7864 7415 c-18 -27 -56 -72 -83 -100 -50 -48 -51 -51 -51 -107 l0
-58 39 0 c34 0 47 7 98 58 66 65 107 120 146 199 l27 51 -71 4 -71 3 -34 -50z"/>
<path d="M8507 7384 l-117 -88 0 -73 0 -73 31 0 c23 0 48 16 109 69 43 38 101
86 129 108 52 38 52 38 49 88 l-3 50 -40 3 c-37 3 -50 -4 -158 -84z"/>
<path d="M8803 7462 l-83 -3 0 -206 c0 -114 2 -204 4 -202 2 2 18 54 35 114
18 63 54 150 82 204 28 51 49 94 47 95 -2 0 -40 0 -85 -2z"/>
<path d="M9196 7440 c-6 -14 -11 -61 -11 -105 0 -70 4 -87 29 -132 l29 -53 64
0 63 0 0 154 0 154 -81 4 c-79 3 -82 2 -93 -22z"/>
<path d="M9710 7303 l1 -168 26 60 c45 102 39 264 -9 273 -17 3 -18 -10 -18
-165z"/>
<path d="M12133 7462 l-123 -3 0 -154 0 -155 160 0 160 0 0 118 -1 117 -37 40
-37 40 -122 -3z"/>
<path d="M820 7305 l0 -155 160 0 160 0 0 155 0 155 -160 0 -160 0 0 -155z"/>
<path d="M1150 7305 l0 -155 134 0 c74 0 146 4 160 10 l26 10 0 145 0 145
-160 0 -160 0 0 -155z"/>
<path d="M1810 7305 l0 -155 155 0 155 0 0 155 0 155 -155 0 -155 0 0 -155z"/>
<path d="M2135 7305 l0 -155 158 0 157 0 0 155 0 155 -157 0 -158 0 0 -155z"/>
<path d="M2460 7305 l0 -155 145 0 144 0 16 30 c11 21 15 62 15 155 l0 125
-160 0 -160 0 0 -155z"/>
<path d="M3206 7408 c-29 -58 -35 -150 -14 -219 l11 -39 119 0 118 0 0 155 0
155 -104 0 -104 0 -26 -52z"/>
<path d="M3450 7305 l0 -155 134 0 134 0 13 38 c22 64 17 150 -13 215 l-27 57
-120 0 -121 0 0 -155z"/>
<path d="M5640 7413 c0 -86 -70 -195 -155 -241 -30 -17 -29 -17 74 -20 115 -3
107 -6 157 75 22 37 26 55 27 138 l2 95 -52 0 -53 0 0 -47z"/>
<path d="M9380 7305 l0 -155 155 0 155 0 0 155 0 155 -155 0 -155 0 0 -155z"/>
<path d="M10365 7305 l0 -155 158 0 157 0 0 155 0 155 -157 0 -158 0 0 -155z"/>
<path d="M10690 7305 l0 -155 130 0 c98 0 138 4 160 15 l30 16 0 139 0 140
-160 0 -160 0 0 -155z"/>
<path d="M11020 7324 c0 -126 1 -136 18 -129 49 22 175 54 235 60 l67 7 0 99
0 99 -160 0 -160 0 0 -136z"/>
<path d="M11350 7361 l0 -99 65 -7 c36 -4 107 -18 156 -31 50 -13 92 -24 95
-24 2 0 4 59 4 130 l0 130 -160 0 -160 0 0 -99z"/>
<path d="M11680 7326 l0 -134 43 -21 c36 -18 62 -21 160 -21 l117 0 0 155 0
155 -160 0 -160 0 0 -134z"/>
<path d="M5100 7256 l0 -106 128 0 127 0 -54 30 c-77 43 -116 75 -161 132
l-40 50 0 -106z"/>
<path d="M12341 7258 l-1 -108 70 0 70 0 -53 84 c-93 149 -86 147 -86 24z"/>
<path d="M4440 7245 l0 -95 117 0 c100 0 115 2 103 14 -33 30 -210 176 -215
176 -3 0 -5 -43 -5 -95z"/>
<path d="M8666 7263 c-55 -112 -55 -113 -2 -113 l46 0 0 90 c0 50 -2 90 -5 90
-3 0 -20 -30 -39 -67z"/>
<path d="M8335 7252 c-17 -15 -50 -44 -75 -64 l-45 -38 83 0 82 0 0 65 c0 36
-3 65 -7 65 -5 0 -22 -13 -38 -28z"/>
<path d="M7681 7235 c-19 -13 -67 -35 -107 -49 l-72 -24 -51 24 -51 23 0 -29
0 -30 160 0 160 0 0 55 c0 30 -1 55 -2 55 -2 -1 -18 -12 -37 -25z"/>
<path d="M490 6980 l0 -160 160 0 161 0 -3 158 -3 157 -157 3 -158 3 0 -161z"/>
<path d="M820 6980 l0 -160 48 0 c42 0 50 3 65 29 23 40 119 136 168 168 38
25 40 28 37 72 l-3 46 -157 3 -158 3 0 -161z"/>
<path d="M1150 7096 l0 -44 80 39 c44 22 80 42 80 44 0 3 -36 5 -80 5 l-80 0
0 -44z"/>
<path d="M1870 7129 c8 -6 47 -28 85 -49 39 -22 91 -56 118 -76 l47 -36 0 86
0 86 -132 -1 c-92 0 -128 -3 -118 -10z"/>
<path d="M2140 7135 c-1 -3 -1 -46 -1 -95 -1 -89 0 -91 33 -128 18 -20 43 -49
54 -64 21 -27 25 -28 123 -28 l101 0 0 160 0 160 -155 0 c-85 0 -155 -2 -155
-5z"/>
<path d="M2465 7127 c-3 -7 -4 -78 -3 -157 l3 -145 158 -3 157 -3 0 71 c0 38
-4 70 -9 70 -5 0 -33 -21 -61 -47 l-53 -48 7 40 c4 22 21 78 37 125 16 47 30
90 31 95 2 6 -47 11 -130 13 -103 2 -134 0 -137 -11z"/>
<path d="M3220 7132 c0 -5 17 -26 37 -47 39 -40 123 -85 161 -85 21 0 22 4 22
70 l0 70 -110 0 c-60 0 -110 -4 -110 -8z"/>
<path d="M3457 7133 c-4 -3 -7 -35 -7 -71 l0 -65 48 5 c26 3 65 13 86 23 43
21 116 85 116 103 0 13 -231 18 -243 5z"/>
<path d="M4165 7033 c3 -60 8 -132 11 -160 l5 -53 85 0 84 0 0 44 c0 45 -19
159 -40 235 l-11 41 -70 0 -70 0 6 -107z"/>
<path d="M4460 7133 c0 -4 39 -48 88 -97 48 -50 113 -119 145 -154 32 -34 60
-62 63 -62 2 0 4 55 4 123 l0 123 -38 37 -38 37 -112 0 c-62 0 -112 -3 -112
-7z"/>
<path d="M5120 7131 c0 -18 184 -102 237 -108 l51 -6 4 58 c1 31 1 59 -1 61
-9 8 -291 4 -291 -5z"/>
<path d="M5430 7080 l0 -60 28 6 c65 16 182 82 182 104 0 6 -45 10 -105 10
l-105 0 0 -60z"/>
<path d="M6306 7108 c-3 -18 -8 -90 -12 -160 l-7 -128 57 0 56 0 0 160 0 160
-44 0 c-42 0 -44 -2 -50 -32z"/>
<path d="M6495 7128 c-2 -7 -7 -79 -12 -161 l-8 -147 66 0 67 0 7 123 c4 67 5
138 3 157 l-3 35 -58 3 c-40 2 -59 -1 -62 -10z"/>
<path d="M7300 7132 c0 -9 73 -62 85 -62 4 0 5 15 3 33 -3 30 -6 32 -45 35
-24 2 -43 -1 -43 -6z"/>
<path d="M7404 7126 c-3 -8 -4 -27 -2 -42 4 -36 46 -48 143 -42 93 6 175 41
175 74 l0 24 -155 0 c-125 0 -157 -3 -161 -14z"/>
<path d="M8132 7078 l-72 -63 0 -97 c0 -96 0 -98 23 -98 17 0 65 40 161 133
113 110 137 138 134 158 -3 23 -7 24 -88 27 l-86 3 -72 -63z"/>
<path d="M8599 7113 c-22 -59 -48 -164 -54 -227 l-7 -67 83 3 84 3 0 155 0
155 -48 3 c-43 3 -48 1 -58 -25z"/>
<path d="M8874 7108 c-20 -18 -46 -52 -56 -76 -23 -50 -26 -138 -8 -182 l12
-30 109 0 110 0 -3 158 -3 157 -62 3 c-57 3 -64 1 -99 -30z"/>
<path d="M9050 6980 l0 -160 99 0 99 0 11 31 c31 88 3 199 -65 259 -30 26 -43
30 -89 30 l-55 0 0 -160z"/>
<path d="M9260 7133 c0 -10 83 -63 99 -63 8 0 11 12 9 33 -3 31 -4 32 -55 35
-29 2 -53 -1 -53 -5z"/>
<path d="M9382 7098 c3 -42 4 -43 47 -52 60 -13 141 5 208 46 29 18 53 36 53
40 0 4 -70 8 -156 8 l-155 0 3 -42z"/>
<path d="M10215 7103 c12 -65 23 -148 19 -152 -2 -2 -19 10 -38 27 -27 24
-128 72 -151 72 -3 0 -5 -52 -5 -115 l0 -115 155 0 155 0 0 160 0 160 -71 0
-71 0 7 -37z"/>
<path d="M10369 7136 c-2 -2 -3 -74 -1 -160 l3 -156 108 0 108 0 46 58 47 57
0 103 0 102 -153 0 c-85 0 -156 -2 -158 -4z"/>
<path d="M10697 7133 c-10 -9 -9 -173 1 -173 4 0 24 16 43 36 18 19 64 58 102
86 37 27 67 52 67 54 0 7 -206 4 -213 -3z"/>
<path d="M11800 7136 c0 -3 25 -29 56 -58 31 -29 75 -81 97 -116 l42 -63 3
107 c1 59 0 114 -2 121 -4 9 -31 13 -101 13 -52 0 -95 -2 -95 -4z"/>
<path d="M12017 7134 c-9 -9 -9 -260 -1 -291 6 -23 9 -23 160 -23 l155 0 -3
158 -3 157 -151 3 c-82 1 -153 -1 -157 -4z"/>
<path d="M12340 6980 l0 -160 150 0 149 0 -18 43 c-48 110 -90 196 -114 235
l-27 42 -70 0 -70 0 0 -160z"/>
<path d="M3798 7113 c-16 -4 -18 -20 -18 -149 l0 -145 153 3 152 3 3 55 c4 74
-19 130 -75 180 -60 53 -141 73 -215 53z"/>
<path d="M413 7008 c-33 -51 -72 -114 -87 -140 l-27 -48 91 0 90 0 0 140 c0
77 -2 140 -4 140 -2 0 -31 -42 -63 -92z"/>
<path d="M3722 7074 c-63 -50 -101 -146 -88 -219 l7 -35 64 0 65 0 0 140 c0
77 -3 140 -7 140 -5 0 -23 -12 -41 -26z"/>
<path d="M9885 7064 c-16 -3 -63 -12 -102 -21 l-73 -16 0 -95 c0 -84 2 -93 17
-88 48 19 130 18 190 -3 107 -36 103 -40 103 99 0 120 0 120 -24 120 -13 0
-36 2 -52 4 -16 2 -42 2 -59 0z"/>
<path d="M4770 6938 l0 -118 105 0 c126 0 127 -9 -10 135 l-94 100 -1 -117z"/>
<path d="M9632 6993 c-60 -26 -147 -84 -207 -138 l-40 -35 147 2 c80 2 149 6
153 9 3 4 4 47 3 96 l-3 89 -53 -23z"/>
<path d="M2875 6993 c-11 -2 -35 -9 -52 -14 l-33 -11 0 -74 0 -74 160 0 160 0
0 84 0 83 -37 7 c-42 6 -167 6 -198 -1z"/>
<path d="M7955 6910 l-90 -90 93 0 92 0 0 90 c0 50 -1 90 -3 90 -1 0 -43 -40
-92 -90z"/>
<path d="M3120 6900 l0 -80 163 0 162 0 -30 25 c-56 46 -245 135 -287 135 -4
0 -8 -36 -8 -80z"/>
<path d="M11380 6901 c-20 -5 -26 -14 -28 -41 l-3 -35 161 -3 160 -3 0 24 c0
26 -17 36 -95 56 -44 12 -156 13 -195 2z"/>
<path d="M11270 6855 l-65 -34 68 -1 67 0 0 35 c0 19 -1 35 -2 35 -2 -1 -32
-16 -68 -35z"/>
<path d="M232 6682 c-34 -70 -64 -142 -68 -160 l-6 -32 161 0 161 0 0 160 0
160 -93 0 -94 0 -61 -128z"/>
<path d="M490 6650 l0 -160 149 0 150 0 11 53 c6 28 10 99 8 157 l-3 105 -157
3 -158 3 0 -161z"/>
<path d="M820 6728 l1 -83 39 75 c21 41 39 78 40 83 0 4 -18 7 -40 7 l-40 0 0
-82z"/>
<path d="M1242 6795 c-18 -8 -47 -24 -63 -35 l-29 -21 0 -112 0 -112 28 47
c63 106 135 162 231 179 59 11 62 13 59 38 -3 26 -3 26 -98 28 -66 2 -105 -2
-128 -12z"/>
<path d="M1480 6775 c0 -25 4 -35 15 -35 24 0 87 -35 112 -62 19 -20 70 -120
87 -170 4 -14 16 -18 51 -18 l45 0 0 61 c0 53 -4 65 -32 101 -58 71 -196 158
-253 158 -22 0 -25 -4 -25 -35z"/>
<path d="M2267 6798 c4 -7 30 -47 57 -88 27 -41 66 -108 88 -148 l38 -73 0
161 0 160 -95 0 c-74 0 -94 -3 -88 -12z"/>
<path d="M2464 6797 c-2 -7 -3 -78 -2 -157 l3 -145 135 -3 135 -2 23 64 c17
50 22 87 22 160 l0 96 -155 0 c-118 0 -157 -3 -161 -13z"/>
<path d="M2797 6803 c-4 -3 -7 -40 -7 -82 l0 -75 53 51 c28 28 76 63 105 77
28 15 52 29 52 31 0 8 -196 6 -203 -2z"/>
<path d="M3155 6800 c3 -5 12 -10 19 -10 25 0 171 -79 213 -114 22 -20 44 -36
47 -36 3 0 6 38 6 85 l0 85 -146 0 c-94 0 -143 -4 -139 -10z"/>
<path d="M3450 6713 c0 -56 4 -104 9 -107 5 -3 25 -31 46 -61 l36 -55 65 0 64
0 -21 43 c-31 60 -121 195 -163 242 l-35 40 -1 -102z"/>
<path d="M3650 6802 c0 -19 59 -88 89 -105 l31 -18 0 65 0 66 -60 0 c-33 0
-60 -4 -60 -8z"/>
<path d="M3780 6741 l0 -70 44 -6 c97 -15 184 27 241 118 l17 27 -151 0 -151
0 0 -69z"/>
<path d="M4177 6803 c-3 -5 -6 -77 -6 -160 l-2 -153 79 0 79 0 11 108 c7 59
12 131 12 160 l0 52 -84 0 c-47 0 -87 -3 -89 -7z"/>
<path d="M4770 6803 c0 -3 26 -38 58 -77 32 -39 86 -108 121 -153 59 -79 64
-83 101 -83 l40 0 0 106 0 106 -46 54 -46 54 -114 0 c-63 0 -114 -3 -114 -7z"/>
<path d="M6294 6693 c4 -65 9 -137 13 -160 l5 -43 44 0 44 0 0 160 0 160 -56
0 -56 0 6 -117z"/>
<path d="M6456 6683 c-10 -71 -20 -143 -23 -160 l-5 -33 65 0 c63 0 66 1 71
28 13 58 43 277 39 285 -2 4 -32 7 -67 7 l-62 0 -18 -127z"/>
<path d="M7792 6741 l-62 -70 0 -90 0 -91 49 0 50 0 95 113 c52 62 102 119
110 126 9 8 16 29 16 47 l0 34 -98 0 -98 0 -62 -69z"/>
<path d="M8540 6650 l0 -160 75 0 75 0 0 63 c0 34 3 106 7 160 l6 97 -81 0
-82 0 0 -160z"/>
<path d="M8840 6791 c25 -48 169 -116 193 -92 5 5 7 30 5 57 l-3 49 -103 3
c-100 3 -103 2 -92 -17z"/>
<path d="M9050 6750 l0 -60 28 6 c46 11 95 41 131 78 l35 36 -97 0 -97 0 0
-60z"/>
<path d="M9380 6713 l0 -96 68 65 c37 36 86 77 110 92 23 14 42 28 42 31 0 3
-49 5 -110 5 l-110 0 0 -97z"/>
<path d="M10039 6805 c-6 -22 -3 -33 12 -50 34 -40 58 -103 69 -183 l12 -82
113 0 113 0 6 -45 c4 -25 4 -49 1 -55 -16 -26 16 -5 59 39 l49 50 -49 4 c-45
3 -44 4 16 6 36 1 90 10 120 21 30 11 70 19 88 20 l32 0 0 55 c0 30 -4 55 -8
55 -27 0 -132 -35 -183 -61 -34 -16 -63 -28 -66 -25 -6 6 35 77 99 173 26 40
48 75 48 78 0 3 -45 4 -101 3 l-101 -3 1 -137 c1 -86 -2 -139 -9 -143 -7 -4
-10 41 -10 139 l0 146 -155 0 c-85 0 -156 -2 -156 -5z"/>
<path d="M11144 6757 c-28 -30 -68 -78 -88 -108 -30 -45 -36 -62 -36 -106 l0
-53 58 0 59 0 12 43 c24 79 71 166 122 221 l51 56 -63 0 c-63 0 -63 0 -115
-53z"/>
<path d="M11571 6803 c1 -5 23 -28 50 -52 l49 -44 0 52 0 51 -50 0 c-27 0 -50
-3 -49 -7z"/>
<path d="M11680 6742 c0 -39 7 -85 15 -106 8 -19 19 -59 23 -88 l7 -53 73 -3
72 -3 0 45 c0 65 -36 165 -79 222 -31 41 -43 49 -74 52 l-37 3 0 -69z"/>
<path d="M12035 6793 c16 -41 35 -170 35 -234 l0 -69 130 0 130 0 0 160 0 160
-151 0 c-140 0 -151 -1 -144 -17z"/>
<path d="M12340 6650 l0 -160 160 0 160 0 0 141 c0 77 -5 149 -10 160 -10 17
-23 19 -160 19 l-150 0 0 -160z"/>
<path d="M9329 6750 c-41 -51 -102 -142 -143 -212 l-27 -48 69 0 69 0 37 55
c37 56 37 56 34 153 l-3 97 -36 -45z"/>
<path d="M12670 6612 l0 -122 35 0 c19 0 35 3 35 7 0 11 -62 227 -66 232 -2 2
-4 -50 -4 -117z"/>
<path d="M1090 6673 c-38 -51 -90 -148 -90 -169 0 -11 18 -14 70 -14 l70 0 0
115 c0 63 -3 115 -7 115 -5 0 -24 -21 -43 -47z"/>
<path d="M11435 6676 c-79 -25 -85 -32 -85 -113 0 -67 2 -73 20 -73 11 0 23 8
26 18 35 109 67 121 98 35 l19 -53 57 0 c55 0 59 1 68 30 22 61 -23 134 -97
159 -41 14 -55 13 -106 -3z"/>
<path d="M5100 6585 l0 -95 75 0 c41 0 75 3 75 6 0 7 -140 184 -146 184 -2 0
-4 -43 -4 -95z"/>
<path d="M7651 6576 c-34 -41 -61 -77 -61 -80 0 -3 29 -6 65 -6 l65 0 0 80 c0
44 -2 80 -4 80 -3 0 -32 -33 -65 -74z"/>
<path d="M10690 6587 l0 -56 46 -21 c38 -16 67 -20 160 -20 107 0 114 1 114
20 0 37 -157 112 -263 125 l-57 7 0 -55z"/>
<path d="M9748 6619 l-38 -11 0 -55 c0 -49 2 -54 18 -48 39 16 99 17 136 1 21
-9 65 -16 97 -16 l59 0 0 39 c0 38 -2 41 -55 66 -63 29 -159 40 -217 24z"/>
<path d="M11306 6588 c-14 -24 -29 -55 -35 -70 -10 -28 -10 -28 29 -28 l40 0
0 70 c0 39 -2 70 -5 70 -2 0 -15 -19 -29 -42z"/>
<path d="M8830 6609 c-32 -13 -78 -56 -96 -91 l-15 -28 161 0 160 0 0 33 c0
71 -122 121 -210 86z"/>
<path d="M9635 6566 c-28 -18 -59 -43 -69 -55 l-19 -21 71 0 72 0 0 55 c0 30
-1 55 -3 55 -1 0 -25 -15 -52 -34z"/>
<path d="M1298 6570 c-20 -11 -46 -33 -58 -50 l-21 -30 81 0 c62 0 82 3 86 15
4 8 14 15 24 15 10 0 23 -7 30 -15 21 -25 30 -17 30 25 0 29 -5 42 -19 50 -31
16 -112 11 -153 -10z"/>
<path d="M3894 6569 c-16 -5 -48 -24 -70 -43 l-39 -35 164 -1 164 0 -24 26
c-49 53 -124 74 -195 53z"/>
<path d="M1480 6531 l0 -41 40 0 c46 0 50 8 18 36 -57 50 -58 50 -58 5z"/>
<path d="M2965 6556 c-22 -8 -65 -25 -95 -39 l-55 -26 148 0 148 -1 -3 38 -3
37 -50 2 c-27 1 -68 -4 -90 -11z"/>
<path d="M1995 6529 c-49 -17 -92 -32 -94 -35 -2 -2 46 -4 107 -4 l112 0 0 35
c0 44 -7 44 -125 4z"/>
<path d="M2140 6526 l0 -36 147 0 c80 0 144 2 142 5 -18 17 -153 56 -215 62
l-74 6 0 -37z"/>
<path d="M3120 6525 l0 -35 73 0 72 0 -33 20 c-29 18 -99 50 -108 50 -2 0 -4
-16 -4 -35z"/>
<path d="M137 6473 c-2 -10 -20 -70 -40 -133 -19 -63 -38 -130 -42 -147 l-7
-33 51 0 51 0 0 165 c0 91 -2 165 -4 165 -2 0 -6 -8 -9 -17z"/>
<path d="M160 6320 l0 -160 160 0 160 0 0 160 0 160 -160 0 -160 0 0 -160z"/>
<path d="M490 6320 l0 -160 155 0 155 0 -8 48 c-4 26 -7 98 -7 160 l0 112
-147 0 -148 0 0 -160z"/>
<path d="M986 6458 c-20 -74 4 -187 55 -256 26 -36 36 -42 66 -42 l36 0 -8 83
c-8 73 -8 118 -2 207 2 24 0 25 -69 28 -67 3 -72 1 -78 -20z"/>
<path d="M1215 6469 c-21 -33 25 -79 80 -79 22 0 65 34 65 51 0 4 3 14 6 23 5
14 -5 16 -69 16 -43 0 -79 -5 -82 -11z"/>
<path d="M1480 6315 l0 -165 -207 -2 -208 -3 74 -28 c99 -37 180 -38 281 -3
69 24 93 36 76 36 -5 0 6 17 24 37 49 55 70 109 70 180 0 34 -4 73 -10 87 -8
23 -15 26 -55 26 l-45 0 0 -165z"/>
<path d="M1713 6388 c1 -62 -5 -111 -16 -147 -25 -80 -25 -81 38 -81 l55 0 0
160 0 160 -39 0 -39 0 1 -92z"/>
<path d="M1810 6320 l0 -160 49 0 48 0 23 62 c43 117 107 189 198 223 26 10
51 22 57 26 5 5 -51 9 -131 9 -110 0 -144 -3 -162 -16 -20 -14 -23 -14 -28 0
-3 9 -17 16 -30 16 l-24 0 0 -160z"/>
<path d="M2240 6475 c0 -3 26 -17 58 -31 31 -14 78 -43 105 -65 l47 -40 0 70
0 71 -105 0 c-58 0 -105 -2 -105 -5z"/>
<path d="M2467 6473 c-4 -3 -7 -38 -7 -77 0 -63 4 -76 31 -116 16 -25 39 -62
50 -82 l19 -38 91 0 c82 0 91 2 85 18 -5 14 -3 13 9 -3 16 -20 14 -20 -80 -23
-52 -1 -95 -7 -95 -12 0 -4 7 -37 16 -72 16 -61 15 -157 -2 -215 -6 -23 -5
-23 74 -23 73 0 81 2 87 21 4 12 12 18 21 15 21 -8 20 178 -2 229 -8 20 -13
39 -11 41 2 2 30 -7 61 -22 82 -37 154 -36 232 5 l59 30 -162 1 -162 0 -3 153
-3 152 -28 -55 -29 -55 7 68 7 67 -130 0 c-71 0 -132 -3 -135 -7z"/>
<path d="M2802 6468 c-8 -8 -12 -58 -12 -160 l0 -148 154 0 c171 0 166 -2 166
72 0 30 -7 46 -29 69 -25 25 -37 29 -81 29 -46 0 -51 -2 -45 -17 4 -10 9 -34
12 -54 5 -31 1 -39 -25 -58 -17 -11 -34 -21 -39 -21 -19 0 -38 54 -36 102 2
70 37 120 113 158 33 17 60 32 60 35 0 11 -226 5 -238 -7z"/>
<path d="M3120 6461 c0 -11 14 -28 34 -39 19 -11 47 -40 63 -63 25 -38 28 -52
28 -121 l0 -78 73 0 72 0 0 30 c0 82 -42 195 -95 259 -26 30 -30 31 -101 31
-66 0 -74 -2 -74 -19z"/>
<path d="M3553 6468 c2 -7 23 -56 44 -108 22 -52 49 -117 60 -145 19 -49 20
-50 66 -53 l47 -3 0 55 c0 44 -10 77 -46 161 l-46 105 -65 0 c-48 0 -64 -3
-60 -12z"/>
<path d="M3780 6395 c0 -80 1 -86 31 -120 18 -20 45 -43 60 -51 37 -19 122
-18 162 2 65 33 67 38 67 151 l0 103 -160 0 -160 0 0 -85z"/>
<path d="M4167 6473 c-9 -8 -9 -225 -1 -276 l7 -38 56 3 56 3 3 50 c1 28 9 93
17 146 8 53 15 101 15 108 0 12 -141 16 -153 4z"/>
<path d="M5032 6458 c8 -13 21 -33 29 -45 21 -35 30 -28 27 20 -3 40 -5 42
-37 45 -34 3 -34 3 -19 -20z"/>
<path d="M5100 6420 c0 -56 3 -64 65 -160 l66 -101 92 3 92 3 3 42 c3 39 -4
53 -75 158 l-78 115 -82 0 -83 0 0 -60z"/>
<path d="M6310 6472 c0 -5 9 -60 21 -123 11 -64 18 -130 15 -151 -6 -37 -5
-38 24 -38 l30 0 0 160 0 160 -45 0 c-25 0 -45 -4 -45 -8z"/>
<path d="M6415 6428 c-3 -29 -5 -100 -3 -158 l3 -105 43 -3 42 -3 0 58 c0 33
11 96 25 144 36 122 37 119 -39 119 l-65 0 -6 -52z"/>
<path d="M7486 6363 c-77 -104 -86 -121 -86 -160 l0 -43 90 0 90 0 70 95 c70
95 70 95 70 160 l0 65 -74 0 -73 0 -87 -117z"/>
<path d="M7730 6425 c0 -30 2 -55 4 -55 6 0 76 96 76 104 0 3 -18 6 -40 6
l-40 0 0 -55z"/>
<path d="M8543 6320 l0 -161 56 3 56 3 11 90 c7 50 13 119 15 155 l3 65 -71 3
-70 3 0 -161z"/>
<path d="M8720 6435 c0 -130 133 -212 255 -156 60 27 66 39 63 123 l-3 73
-157 3 -158 3 0 -46z"/>
<path d="M9102 6386 c-48 -86 -52 -99 -52 -160 l0 -66 43 0 44 0 74 153 c40
83 75 155 77 160 2 4 -27 7 -65 7 l-69 0 -52 -94z"/>
<path d="M9495 6408 c-37 -77 -59 -174 -49 -220 5 -27 7 -28 78 -28 l72 0 -4
61 c-6 81 12 158 49 208 16 23 29 43 29 46 0 3 -31 5 -69 5 l-70 0 -36 -72z"/>
<path d="M9930 6475 c0 -3 10 -19 21 -35 43 -57 22 -190 -29 -190 -10 0 -28
11 -40 23 l-22 24 19 44 c21 47 16 59 -26 59 -37 0 -101 -30 -117 -55 -32 -48
-13 -135 36 -169 27 -19 183 -22 223 -4 l25 11 0 149 0 148 -45 0 c-25 0 -45
-2 -45 -5z"/>
<path d="M10040 6338 l1 -143 30 35 c28 31 30 32 24 10 -4 -14 -14 -37 -22
-52 l-14 -28 93 0 93 0 18 43 c9 24 33 67 52 96 31 46 35 60 35 117 l0 64
-109 0 -110 0 -3 -52 -3 -53 -15 50 c-13 42 -20 50 -43 53 l-27 3 0 -143z"/>
<path d="M10835 6431 c46 -63 65 -111 79 -196 l12 -70 42 -3 42 -3 0 160 0
161 -105 0 -105 0 35 -49z"/>
<path d="M11027 6473 c-4 -3 -7 -75 -7 -160 l0 -153 76 0 76 0 -5 33 c-3 17
-14 89 -24 160 l-17 127 -46 0 c-26 0 -50 -3 -53 -7z"/>
<path d="M11262 6411 c5 -66 38 -148 68 -166 6 -4 10 38 10 114 l0 121 -41 0
-42 0 5 -69z"/>
<path d="M11350 6355 l0 -126 53 -24 c58 -27 160 -34 230 -14 35 9 37 12 37
51 0 39 -1 40 -27 32 -109 -33 -207 31 -238 154 -9 36 -17 48 -34 50 -21 3
-21 1 -21 -123z"/>
<path d="M11725 6428 c-4 -29 -16 -70 -26 -90 -17 -34 -27 -128 -13 -128 15 0
96 64 119 95 29 37 65 124 65 155 0 18 -7 20 -69 20 l-69 0 -7 -52z"/>
<path d="M12065 6428 c-4 -29 -16 -87 -27 -128 -11 -41 -22 -90 -25 -107 l-5
-33 161 0 161 0 0 160 0 160 -129 0 -129 0 -7 -52z"/>
<path d="M12340 6320 l0 -160 160 0 161 0 -3 158 -3 157 -157 3 -158 3 0 -161z"/>
<path d="M12670 6321 l0 -161 61 0 62 0 -7 73 c-4 39 -14 110 -24 157 l-17 85
-37 3 -38 3 0 -160z"/>
<path d="M1434 6310 c-42 -60 -69 -83 -134 -119 l-55 -31 108 0 c81 0 109 3
113 13 3 8 4 52 2 98 l-3 84 -31 -45z"/>
<path d="M10540 6315 c-57 -18 -108 -60 -138 -114 l-23 -41 150 0 151 0 0 79
c0 73 -2 79 -22 85 -34 9 -68 6 -118 -9z"/>
<path d="M10690 6235 l0 -75 85 0 c47 0 85 4 85 8 0 36 -119 142 -158 142 -8
0 -12 -25 -12 -75z"/>
<path d="M9005 6217 c-14 -24 -25 -47 -25 -50 0 -4 14 -7 30 -7 29 0 30 1 30
50 0 28 -2 50 -5 50 -2 0 -16 -20 -30 -43z"/>
<path d="M2153 6243 c-8 -2 -13 -22 -13 -44 l0 -39 137 0 136 0 -24 26 c-41
44 -92 64 -161 63 -35 0 -69 -3 -75 -6z"/>
<path d="M2053 6200 c-29 -17 -53 -33 -53 -35 0 -3 27 -5 60 -5 l60 0 0 35 c0
19 -3 35 -7 35 -5 0 -32 -14 -60 -30z"/>
<path d="M8733 6203 c-7 -2 -13 -13 -13 -24 0 -18 8 -19 112 -19 61 0 109 2
107 4 -6 6 -165 46 -181 45 -7 0 -19 -3 -25 -6z"/>
<path d="M46 6141 c-6 -10 -31 -168 -40 -253 l-6 -58 75 0 75 0 0 160 0 160
-49 0 c-28 0 -52 -4 -55 -9z"/>
<path d="M160 5990 l0 -160 160 0 160 0 0 160 0 160 -160 0 -160 0 0 -160z"/>
<path d="M490 5990 l0 -160 160 0 160 0 0 160 0 160 -160 0 -160 0 0 -160z"/>
<path d="M1667 6120 c-14 -68 -19 -162 -12 -224 l7 -66 64 0 64 0 0 160 0 160
-59 0 c-57 0 -59 -1 -64 -30z"/>
<path d="M1810 5990 l0 -160 34 0 33 0 6 118 c4 64 9 136 13 160 l7 42 -47 0
-46 0 0 -160z"/>
<path d="M1972 6118 c-43 -70 -52 -183 -23 -262 10 -25 13 -26 91 -26 l80 0 0
160 0 160 -64 0 c-62 0 -65 -1 -84 -32z"/>
<path d="M2140 5990 c0 -150 1 -160 19 -160 14 0 21 10 25 35 8 41 10 41 43
15 36 -28 95 -42 126 -31 76 29 118 182 75 276 -11 25 -11 25 -150 25 l-138 0
0 -160z"/>
<path d="M3229 6123 c-18 -48 -50 -107 -80 -144 -24 -31 -29 -46 -29 -93 l0
-56 32 0 c66 0 208 179 225 283 l6 37 -72 0 c-69 0 -72 -1 -82 -27z"/>
<path d="M3715 6069 c54 -125 54 -125 55 -16 l0 97 -45 0 -44 0 34 -81z"/>
<path d="M3780 6043 c0 -102 2 -111 30 -160 l30 -53 85 0 c47 0 85 2 85 4 0 2
-22 36 -48 77 -27 41 -69 111 -93 156 -35 66 -49 83 -66 83 -22 0 -23 -3 -23
-107z"/>
<path d="M3969 6122 c-85 -76 -11 -228 100 -206 l31 7 0 113 0 114 -50 0 c-40
0 -56 -5 -81 -28z"/>
<path d="M4110 6035 c0 -63 2 -115 5 -115 2 0 16 17 30 37 16 25 25 51 25 78
0 27 -9 53 -25 78 -14 20 -28 37 -30 37 -3 0 -5 -52 -5 -115z"/>
<path d="M4175 6078 c4 -40 17 -111 29 -158 l21 -85 53 -3 c28 -2 52 0 52 4 0
3 -7 34 -16 68 -9 33 -19 102 -23 151 l-6 90 -59 3 -58 3 7 -73z"/>
<path d="M4798 6138 c-27 -9 -28 -12 -28 -89 l0 -80 43 30 c74 53 161 59 260
16 15 -6 17 -1 17 49 0 56 -1 57 -35 72 -40 16 -214 18 -257 2z"/>
<path d="M5242 6142 c9 -23 164 -282 168 -282 3 0 4 65 2 145 l-3 145 -85 0
c-47 0 -84 -4 -82 -8z"/>
<path d="M5430 5990 l0 -160 120 0 121 0 -12 23 c-6 12 -48 84 -93 159 -73
124 -84 138 -108 138 l-28 0 0 -160z"/>
<path d="M6275 5999 c-33 -83 -61 -155 -63 -160 -2 -5 27 -9 65 -9 l68 0 28
73 c22 59 27 91 27 160 l0 87 -32 0 -33 0 -60 -151z"/>
<path d="M6417 6144 c-17 -17 -6 -150 18 -231 l26 -83 64 0 c36 0 65 3 65 8
-1 4 -20 75 -44 157 l-43 150 -40 3 c-21 2 -42 0 -46 -4z"/>
<path d="M7231 5996 c-55 -84 -101 -156 -101 -160 0 -3 54 -6 120 -6 108 0
120 2 130 19 5 11 10 83 10 160 l0 141 -29 0 c-26 0 -38 -14 -130 -154z"/>
<path d="M7400 6025 c0 -69 2 -125 4 -125 3 0 35 46 72 103 37 56 73 112 82
125 l14 22 -86 0 -86 0 0 -125z"/>
<path d="M7730 6095 c0 -30 2 -55 5 -55 3 0 33 9 67 21 42 14 73 18 97 14 42
-8 102 -38 120 -59 24 -29 31 -17 31 59 l0 75 -160 0 -160 0 0 -55z"/>
<path d="M8536 6137 c-2 -6 -9 -43 -15 -82 -7 -38 -23 -97 -37 -130 -43 -101
-44 -95 19 -95 l55 0 30 83 c17 46 34 101 38 122 l7 38 19 -39 c10 -21 27 -48
38 -59 20 -19 20 -19 20 77 l0 96 -85 1 c-61 1 -87 -3 -89 -12z"/>
<path d="M8720 6056 l0 -94 30 -7 c21 -5 43 -1 70 13 44 21 44 20 -15 -58 -65
-86 -67 -80 34 -80 l90 0 55 78 55 77 1 83 0 82 -38 0 c-35 0 -40 -4 -72 -57
l-35 -58 -3 35 c-6 82 -4 80 -92 80 l-80 0 0 -94z"/>
<path d="M9050 6078 c0 -39 1 -69 3 -67 2 2 20 34 41 72 l37 67 -41 0 -40 0 0
-72z"/>
<path d="M9450 6140 c0 -5 9 -34 21 -65 25 -68 105 -158 170 -191 l48 -24 3
68 c3 62 1 70 -29 109 -17 24 -37 59 -44 78 l-13 35 -78 0 c-43 0 -78 -4 -78
-10z"/>
<path d="M10044 6128 c-11 -28 -1 -185 16 -250 l12 -48 88 0 88 0 -19 50 c-23
60 -25 157 -5 223 l14 47 -92 0 c-87 0 -93 -1 -102 -22z"/>
<path d="M10376 6134 c-19 -49 4 -146 44 -186 42 -42 111 -34 172 20 16 13 18
13 24 -2 7 -19 0 -91 -11 -118 -6 -15 -1 -18 34 -18 l41 0 0 160 0 160 -149 0
c-127 0 -150 -2 -155 -16z"/>
<path d="M10692 5993 l3 -158 55 0 54 0 29 55 c33 65 53 169 43 223 l-7 37
-90 0 -90 0 3 -157z"/>
<path d="M10930 6092 c0 -58 -16 -213 -26 -244 -5 -16 2 -18 50 -18 l56 0 0
160 0 160 -40 0 -40 0 0 -58z"/>
<path d="M11020 5990 l0 -160 45 0 c40 0 47 3 56 28 13 34 35 147 43 230 l7
62 -76 0 -75 0 0 -160z"/>
<path d="M11974 6118 c-34 -66 -117 -178 -170 -228 -30 -28 -54 -53 -54 -56 0
-2 56 -4 125 -4 l125 0 0 160 c0 88 -2 160 -5 160 -2 0 -12 -15 -21 -32z"/>
<path d="M12010 5990 l0 -160 160 0 160 0 0 160 0 160 -160 0 -160 0 0 -160z"/>
<path d="M12340 5990 l0 -160 160 0 160 0 0 160 0 160 -160 0 -160 0 0 -160z"/>
<path d="M12670 5990 l0 -160 59 0 60 0 6 53 c3 28 5 99 3 157 l-3 105 -62 3
-63 3 0 -161z"/>
<path d="M7644 6102 c-94 -62 -169 -156 -199 -250 -7 -23 -6 -23 66 -20 l72 3
15 45 c10 28 35 64 69 98 51 51 53 55 53 108 0 30 -4 54 -8 54 -5 0 -35 -17
-68 -38z"/>
<path d="M8060 6063 c0 -68 4 -86 38 -155 l37 -78 69 0 68 0 -6 38 c-13 73
-37 130 -73 172 -37 42 -108 100 -125 100 -4 0 -8 -35 -8 -77z"/>
<path d="M5100 6062 c0 -55 3 -62 39 -100 21 -22 47 -61 56 -86 l18 -46 68 0
c81 0 83 4 43 82 -34 67 -111 148 -174 182 l-50 27 0 -59z"/>
<path d="M4690 6076 c-25 -18 -59 -48 -74 -67 -30 -35 -86 -144 -86 -166 0 -9
21 -13 73 -13 l73 0 42 64 c40 61 42 68 42 140 0 88 -4 91 -70 42z"/>
<path d="M9972 6043 c-85 -85 -156 -105 -244 -68 -16 6 -18 0 -18 -54 0 -57 2
-61 26 -67 59 -15 212 16 272 54 9 6 12 33 10 94 l-3 85 -43 -44z"/>
<path d="M820 5948 l0 -118 65 0 c36 0 65 3 65 6 0 3 -12 21 -26 40 -15 19
-44 69 -65 111 l-38 78 -1 -117z"/>
<path d="M2790 5930 c0 -77 1 -81 26 -90 14 -6 86 -10 160 -10 l134 0 0 50 c0
28 -2 50 -4 50 -2 0 -20 -7 -39 -15 -58 -24 -115 -19 -174 15 -29 17 -60 41
-69 55 -9 14 -20 25 -25 25 -5 0 -9 -36 -9 -80z"/>
<path d="M7800 5909 c-27 -11 -80 -58 -80 -71 0 -4 59 -8 130 -8 72 0 130 4
130 8 0 14 -54 60 -83 71 -34 13 -64 13 -97 0z"/>
<path d="M4855 5861 l-60 -29 150 0 150 0 -60 29 c-33 16 -73 29 -90 29 -16 0
-57 -13 -90 -29z"/>
<path d="M3 5678 c3 -79 9 -151 12 -160 6 -15 19 -18 71 -18 l64 0 0 160 0
160 -77 0 -76 0 6 -142z"/>
<path d="M160 5660 l0 -160 160 0 160 0 0 160 0 160 -160 0 -160 0 0 -160z"/>
<path d="M490 5660 l0 -160 160 0 160 0 0 160 0 160 -160 0 -160 0 0 -160z"/>
<path d="M820 5660 l0 -161 158 3 157 3 3 87 3 87 -38 24 c-21 13 -61 45 -89
71 -52 46 -53 46 -123 46 l-71 0 0 -160z"/>
<path d="M1670 5806 c0 -15 64 -208 75 -225 9 -15 7 -15 -103 18 -53 15 -112
31 -129 34 l-33 7 0 -59 0 -58 64 -11 c35 -7 101 -13 147 -14 82 -1 83 -1 24
-7 l-60 -6 65 -28 c36 -15 67 -27 70 -27 3 0 5 24 4 53 0 28 -2 116 -2 195
l-2 142 -60 0 c-45 0 -60 -4 -60 -14z"/>
<path d="M1810 5660 l0 -160 86 0 c47 0 84 3 82 8 -49 94 -88 223 -88 286 0
24 -4 26 -40 26 l-40 0 0 -160z"/>
<path d="M1976 5788 c27 -53 83 -126 115 -149 l29 -20 0 100 0 101 -80 0 -81
0 17 -32z"/>
<path d="M2138 5714 c-3 -96 -1 -106 17 -118 50 -31 115 -49 203 -54 l92 -5 0
77 0 77 -37 -8 c-59 -12 -132 -5 -167 16 -36 23 -51 44 -61 89 -4 22 -12 32
-25 32 -17 0 -19 -11 -22 -106z"/>
<path d="M2545 5783 c-16 -21 -41 -48 -57 -61 -26 -22 -28 -28 -28 -99 l0 -75
26 6 c44 11 108 45 147 77 38 31 67 79 93 151 l13 38 -83 0 -84 0 -27 -37z"/>
<path d="M3856 5808 c25 -43 109 -143 169 -202 l70 -69 3 92 3 92 -38 49 -38
49 -88 1 c-68 0 -86 -3 -81 -12z"/>
<path d="M4255 5763 c14 -31 35 -72 47 -92 32 -54 112 -160 121 -161 4 0 7 34
7 76 0 58 -4 82 -19 102 -10 15 -30 51 -45 80 l-26 52 -55 0 -55 0 25 -57z"/>
<path d="M4522 5733 c4 -63 13 -109 33 -160 l27 -73 59 0 c33 0 59 2 59 5 0 2
-12 40 -26 82 -26 77 -28 137 -8 211 6 21 4 22 -71 22 l-77 0 4 -87z"/>
<path d="M4799 5788 c-37 -90 2 -204 89 -259 43 -27 54 -29 122 -27 l75 3 3
44 c3 42 2 43 -20 37 -13 -4 -33 -10 -45 -13 -48 -11 -113 97 -97 162 7 29 16
31 34 10 18 -22 79 -36 101 -24 14 7 19 21 19 54 l0 45 -134 0 -134 0 -13 -32z"/>
<path d="M5210 5799 c0 -46 -26 -103 -67 -149 -39 -43 -43 -53 -43 -99 0 -45
3 -51 20 -51 32 0 116 46 155 85 49 49 76 108 82 177 l6 58 -77 0 c-71 0 -76
-1 -76 -21z"/>
<path d="M5432 5813 c2 -5 37 -76 78 -160 l75 -152 77 -1 77 0 3 91 c3 88 1
95 -31 160 l-34 69 -124 0 c-69 0 -123 -3 -121 -7z"/>
<path d="M6181 5763 c-12 -32 -37 -83 -55 -113 -22 -36 -35 -71 -37 -100 l-4
-45 158 -3 157 -3 0 145 0 145 -36 -6 c-34 -6 -36 -4 -29 16 6 20 3 21 -63 21
l-69 0 -22 -57z"/>
<path d="M6470 5799 c0 -16 -5 -20 -27 -17 l-28 3 0 -140 0 -140 148 -3 c81
-1 147 -1 147 1 0 8 -24 76 -67 195 l-46 122 -63 0 c-58 0 -64 -2 -64 -21z"/>
<path d="M7093 5780 c-20 -34 -23 -53 -23 -159 l0 -121 53 0 53 0 67 118 c36
64 78 136 92 160 l26 42 -123 0 -123 0 -22 -40z"/>
<path d="M7439 5798 c-3 -44 3 -93 16 -124 32 -76 126 -143 223 -158 l42 -6 0
44 c0 40 -3 46 -36 67 -46 28 -91 99 -100 155 l-6 44 -69 0 c-64 0 -69 -1 -70
-22z"/>
<path d="M7730 5780 l0 -40 40 0 c27 0 47 7 60 20 27 27 30 26 30 -15 0 -61
-44 -122 -102 -144 -24 -9 -28 -16 -28 -52 l0 -41 43 7 c147 23 254 159 221
283 -6 21 -10 22 -135 22 l-129 0 0 -40z"/>
<path d="M8134 5750 c0 -59 -6 -80 -37 -143 -55 -111 -58 -107 81 -107 l118 0
42 36 42 36 0 76 0 77 -95 -95 -96 -95 26 57 c24 52 54 170 55 211 0 14 -10
17 -67 17 l-68 0 -1 -70z"/>
<path d="M8412 5784 c-20 -30 -22 -46 -20 -115 l3 -81 51 69 c28 37 64 89 79
116 l27 47 -59 0 c-55 0 -59 -2 -81 -36z"/>
<path d="M8727 5813 c-4 -3 -7 -49 -7 -100 l0 -94 49 42 c28 22 73 68 101 100
l51 59 -94 0 c-51 0 -97 -3 -100 -7z"/>
<path d="M10080 5807 c0 -28 63 -107 108 -135 36 -23 136 -62 159 -62 2 0 3
34 3 75 0 42 -4 75 -10 75 -5 0 -25 14 -43 30 -33 29 -39 30 -126 30 -69 0
-91 -3 -91 -13z"/>
<path d="M10547 5787 c-33 -27 -47 -32 -108 -35 l-69 -4 0 -69 0 -69 38 0 c56
0 148 26 214 62 l58 31 0 58 0 59 -47 -1 c-39 0 -55 -6 -86 -32z"/>
<path d="M10690 5770 c0 -27 4 -50 8 -50 8 0 34 26 76 78 l19 22 -51 0 -52 0
0 -50z"/>
<path d="M10895 5808 c-44 -126 -95 -218 -149 -267 -14 -14 -26 -28 -26 -33 0
-13 235 -10 265 4 l25 11 0 149 0 148 -55 0 c-36 0 -57 -5 -60 -12z"/>
<path d="M11020 5675 c0 -80 1 -145 3 -145 1 0 40 14 87 30 47 16 118 35 158
42 l72 12 0 58 c0 55 -1 58 -22 54 -13 -3 -49 -10 -80 -16 -31 -6 -91 -22
-132 -34 l-75 -24 23 47 c13 25 31 63 39 84 l16 37 -45 0 -44 0 0 -145z"/>
<path d="M11697 5802 c-14 -15 -17 -42 -17 -160 l0 -142 160 0 160 0 0 160 0
160 -143 0 c-127 0 -146 -2 -160 -18z"/>
<path d="M12010 5660 l0 -160 160 0 160 0 0 160 0 160 -160 0 -160 0 0 -160z"/>
<path d="M12340 5660 l0 -160 160 0 160 0 0 160 0 160 -160 0 -160 0 0 -160z"/>
<path d="M12670 5660 l0 -160 29 0 c29 0 30 1 54 108 14 59 29 131 32 160 l7
52 -61 0 -61 0 0 -160z"/>
<path d="M8613 5690 c-50 -48 -122 -110 -160 -136 l-68 -49 83 -3 83 -3 68 45
c38 25 74 52 80 60 8 9 11 43 9 94 l-3 80 -92 -88z"/>
<path d="M11610 5757 c-34 -16 -70 -22 -152 -25 l-108 -4 0 -58 0 -57 63 -5
c59 -5 167 -42 167 -58 0 -4 -27 -15 -60 -24 -33 -9 -60 -19 -60 -22 0 -2 47
-4 105 -4 l105 0 0 140 c0 77 -3 140 -7 139 -5 0 -28 -10 -53 -22z"/>
<path d="M6997 5616 c-31 -57 -57 -106 -57 -110 0 -3 27 -6 60 -6 l60 0 0 110
c0 61 -1 110 -3 110 -1 0 -28 -47 -60 -104z"/>
<path d="M4110 5616 c0 -110 8 -116 135 -116 l90 1 -40 31 c-22 18 -71 63
-109 100 -38 37 -71 68 -73 68 -2 0 -3 -38 -3 -84z"/>
<path d="M1150 5586 l0 -86 43 0 c23 0 64 7 91 15 27 8 80 15 118 15 l68 0 0
54 0 53 -40 7 c-22 3 -70 3 -107 0 -61 -6 -104 0 -155 21 -16 6 -18 -1 -18
-79z"/>
<path d="M4440 5570 l0 -70 66 0 65 0 -62 70 c-35 39 -64 70 -66 70 -2 0 -3
-31 -3 -70z"/>
<path d="M5760 5573 l0 -73 35 0 35 0 -24 55 c-43 96 -45 97 -46 18z"/>
<path d="M7957 5425 c-58 -61 -96 -91 -152 -121 l-76 -39 3 -45 3 -45 158 -3
157 -3 0 171 c0 93 -3 169 -7 169 -5 -1 -43 -38 -86 -84z"/>
<path d="M8320 5476 c-25 -13 -56 -27 -70 -31 -24 -6 -24 -6 5 19 l30 25 -112
1 -113 0 0 -160 0 -161 158 3 157 3 3 38 3 37 -118 1 -118 1 70 13 c39 7 91
16 118 20 l47 6 0 105 c0 57 -3 104 -7 104 -5 -1 -28 -11 -53 -24z"/>
<path d="M20 5483 c1 -22 40 -177 60 -240 21 -63 27 -73 47 -73 l23 0 0 160 0
160 -65 0 c-36 0 -65 -3 -65 -7z"/>
<path d="M160 5330 l0 -161 158 3 157 3 3 158 3 157 -161 0 -160 0 0 -160z"/>
<path d="M490 5330 l0 -161 158 3 157 3 3 158 3 157 -161 0 -160 0 0 -160z"/>
<path d="M820 5330 l0 -161 158 3 157 3 3 158 3 157 -161 0 -160 0 0 -160z"/>
<path d="M1810 5453 c0 -38 2 -39 138 -130 75 -51 145 -95 155 -99 15 -5 17 1
17 65 l0 71 -66 65 -66 65 -89 0 -89 0 0 -37z"/>
<path d="M4190 5479 c8 -6 40 -24 70 -42 l55 -32 -102 -3 -103 -3 0 -69 0 -70
93 0 c50 0 122 -3 160 -7 l67 -6 0 100 0 99 -39 22 c-32 18 -54 22 -127 21
-63 0 -85 -3 -74 -10z"/>
<path d="M4485 5444 c40 -36 45 -44 25 -38 -14 3 -35 12 -47 20 l-23 14 0 -98
0 -99 69 -6 c57 -5 149 -29 234 -62 16 -7 17 3 17 119 0 114 -2 130 -22 161
l-23 35 -140 0 -140 0 50 -46z"/>
<path d="M5661 5330 c38 -88 69 -164 69 -170 0 -6 3 -9 8 -7 4 3 6 80 4 171
l-3 166 -73 0 -74 0 69 -160z"/>
<path d="M5760 5330 l0 -160 100 0 c55 0 100 3 100 8 0 4 -28 76 -62 160 l-62
152 -38 0 -38 0 0 -160z"/>
<path d="M6090 5352 c0 -190 -8 -182 171 -182 l139 0 0 160 0 160 -155 0 -155
0 0 -138z"/>
<path d="M6412 5333 l3 -158 102 -3 101 -3 26 34 c50 65 82 180 70 250 l-6 37
-149 0 -150 0 3 -157z"/>
<path d="M6847 5335 c-42 -85 -77 -158 -77 -160 0 -3 53 -4 117 -3 l118 3 27
50 c25 46 28 60 28 158 l0 107 -68 0 -67 0 -78 -155z"/>
<path d="M7070 5403 c0 -49 4 -83 9 -77 4 5 27 44 50 87 l42 77 -50 0 -51 0 0
-87z"/>
<path d="M8390 5389 l0 -102 38 7 c20 3 92 6 160 6 l122 0 0 70 0 69 -132 3
-133 3 40 22 40 22 -67 1 -68 0 0 -101z"/>
<path d="M10690 5410 c0 -44 2 -80 6 -80 4 0 222 145 233 156 2 2 -50 4 -117
4 l-122 0 0 -80z"/>
<path d="M11394 5445 l-45 -45 3 -113 3 -112 158 -3 157 -3 0 161 0 160 -115
0 -116 0 -45 -45z"/>
<path d="M11680 5330 l0 -160 160 0 160 0 0 160 0 160 -160 0 -160 0 0 -160z"/>
<path d="M12010 5330 l0 -161 158 3 157 3 3 158 3 157 -161 0 -160 0 0 -160z"/>
<path d="M12340 5330 l0 -161 121 3 122 3 38 75 c35 69 38 82 39 158 l0 82
-160 0 -160 0 0 -160z"/>
<path d="M12670 5425 c0 -36 2 -65 4 -65 3 0 12 24 22 53 9 28 19 58 22 65 2
7 -5 12 -22 12 -25 0 -26 -2 -26 -65z"/>
<path d="M10630 5444 c-47 -34 -132 -77 -205 -103 l-60 -22 2 -72 1 -72 143
-3 c79 -1 139 1 135 5 -4 4 -42 17 -83 28 l-76 21 96 46 97 47 0 76 c0 41 -3
75 -7 75 -5 -1 -24 -12 -43 -26z"/>
<path d="M1150 5315 l0 -145 140 0 140 0 0 28 c0 41 -53 142 -96 184 -44 42
-116 77 -156 78 l-28 0 0 -145z"/>
<path d="M8720 5371 l0 -70 58 -6 c31 -3 101 -11 156 -18 112 -15 109 -17 104
64 l-3 54 -85 16 c-47 9 -118 19 -158 22 l-72 7 0 -69z"/>
<path d="M3920 5384 c-151 -22 -140 -14 -140 -89 0 -36 1 -65 3 -65 1 0 52 7
112 15 61 8 131 15 158 15 l47 0 0 70 0 70 -42 -1 c-24 -1 -86 -7 -138 -15z"/>
<path d="M4770 5286 l0 -116 155 0 c135 0 156 2 162 16 8 22 -12 36 -118 80
-59 24 -106 52 -143 86 l-56 50 0 -116z"/>
<path d="M9050 5327 c0 -63 1 -66 28 -71 23 -4 246 -44 277 -49 6 -1 10 25 10
62 l0 65 -125 22 c-69 11 -140 24 -157 28 l-33 8 0 -65z"/>
<path d="M3615 5334 c-66 -13 -130 -26 -142 -29 -21 -5 -23 -11 -23 -66 0 -42
4 -61 14 -65 8 -3 79 8 157 24 l144 28 3 67 c3 79 18 75 -153 41z"/>
<path d="M2138 5278 l-3 -71 43 -18 c34 -15 69 -19 158 -19 l114 0 0 29 c0 27
-4 30 -81 55 -44 14 -114 41 -154 60 l-73 34 -4 -70z"/>
<path d="M9380 5267 l0 -65 69 -16 c39 -9 108 -16 155 -16 l86 0 0 58 0 59
-127 17 c-71 10 -140 20 -155 23 l-28 6 0 -66z"/>
<path d="M10260 5300 c-47 -10 -115 -21 -152 -25 l-68 -7 0 -49 0 -49 155 0
155 0 0 75 c0 41 -1 74 -2 74 -2 -1 -41 -10 -88 -19z"/>
<path d="M3272 5267 l-153 -30 3 -31 3 -31 158 -3 157 -3 0 66 c0 36 -3 64 -7
64 -5 -1 -77 -15 -161 -32z"/>
<path d="M9710 5226 l0 -56 155 0 155 0 0 50 0 50 -78 0 c-44 0 -113 3 -155 6
l-77 7 0 -57z"/>
<path d="M7628 5221 c-43 -20 -81 -40 -84 -44 -4 -4 34 -7 84 -7 l92 0 0 45
c0 25 -3 45 -7 44 -5 0 -43 -17 -85 -38z"/>
<path d="M11297 5253 c-4 -3 -7 -24 -7 -45 0 -34 3 -38 25 -38 23 0 25 4 25
45 0 37 -3 45 -18 45 -10 0 -22 -3 -25 -7z"/>
<path d="M8390 5210 l0 -40 145 0 c123 0 147 2 152 16 3 8 2 19 -3 24 -8 8
-95 21 -236 35 l-58 5 0 -40z"/>
<path d="M3033 5228 c-57 -9 -63 -12 -63 -34 0 -23 3 -24 70 -24 l70 0 0 35
c0 19 -3 34 -7 34 -5 -1 -36 -6 -70 -11z"/>
<path d="M160 5093 c0 -62 5 -77 48 -158 l48 -90 109 0 110 0 3 158 3 157
-161 0 -160 0 0 -67z"/>
<path d="M490 5000 l0 -161 158 3 157 3 3 158 3 157 -161 0 -160 0 0 -160z"/>
<path d="M820 5000 l0 -161 158 3 157 3 3 158 3 157 -161 0 -160 0 0 -160z"/>
<path d="M1150 5000 l0 -160 81 0 c78 0 82 1 112 33 46 49 87 144 94 220 l6
67 -147 0 -146 0 0 -160z"/>
<path d="M2192 5142 l-54 -17 -1 -103 c-1 -56 0 -102 1 -102 2 0 24 22 48 49
57 64 110 85 199 79 l65 -4 0 58 0 58 -102 -1 c-67 0 -121 -6 -156 -17z"/>
<path d="M2460 5101 l0 -59 44 -26 c53 -31 92 -76 118 -133 l19 -43 69 0 70 0
0 79 0 79 -42 36 -43 36 43 0 42 0 0 45 0 45 -160 0 -160 0 0 -59z"/>
<path d="M2790 5115 c0 -53 -11 -50 155 -35 161 15 165 16 165 51 l0 29 -160
0 -160 0 0 -45z"/>
<path d="M3120 5129 c0 -31 1 -31 38 -25 62 11 72 17 72 37 0 16 -7 19 -55 19
-55 0 -55 0 -55 -31z"/>
<path d="M3865 5137 l-80 -22 -3 -67 c-2 -38 -1 -68 2 -68 3 0 52 13 108 29
57 16 127 34 156 41 l52 12 0 49 0 49 -77 -1 c-46 0 -111 -10 -158 -22z"/>
<path d="M4110 5112 l0 -49 78 13 c43 7 115 16 160 19 82 8 82 8 82 36 l0 29
-160 0 -160 0 0 -48z"/>
<path d="M4440 5130 l0 -30 129 0 c71 0 143 -3 160 -6 30 -6 31 -6 31 30 l0
36 -160 0 -160 0 0 -30z"/>
<path d="M4770 5125 c0 -28 4 -36 23 -40 12 -2 69 -14 126 -26 57 -11 115 -25
128 -30 40 -15 43 -11 43 61 l0 70 -160 0 -160 0 0 -35z"/>
<path d="M5100 5086 l0 -74 48 -28 c26 -15 84 -54 130 -87 59 -42 90 -57 108
-55 26 3 26 4 26 82 l0 80 -38 29 c-129 97 -183 127 -229 127 l-45 0 0 -74z"/>
<path d="M5760 5123 c0 -21 20 -92 44 -158 l44 -120 111 -3 c120 -3 123 -1
102 50 -5 13 -19 53 -30 90 -12 37 -30 93 -42 123 l-20 55 -105 0 -104 0 0
-37z"/>
<path d="M6154 5137 c76 -58 72 -47 34 -108 -40 -64 -89 -175 -81 -183 4 -3
71 -6 150 -6 l143 0 0 160 0 160 -137 -1 -138 0 29 -22z"/>
<path d="M6412 5003 l3 -158 95 0 c112 0 109 -10 49 140 l-40 100 21 17 c12
10 34 26 48 37 l27 20 -103 1 -103 0 3 -157z"/>
<path d="M6750 5140 c-6 -12 -9 -74 -8 -157 l3 -138 53 -3 53 -3 21 48 c11 26
44 99 74 161 l53 112 -119 0 c-109 0 -120 -2 -130 -20z"/>
<path d="M7452 5125 l-52 -36 0 -95 0 -95 58 39 c70 48 163 96 220 112 42 13
42 13 42 62 l0 48 -108 0 c-106 0 -108 0 -160 -35z"/>
<path d="M7730 5114 c0 -36 3 -45 14 -41 22 9 85 24 147 37 49 9 56 14 52 30
-5 18 -15 20 -109 20 l-104 0 0 -46z"/>
<path d="M8500 5140 c0 -14 9 -21 38 -26 20 -3 65 -12 100 -18 34 -7 64 -10
67 -8 3 3 5 20 5 39 l0 33 -105 0 c-98 0 -105 -1 -105 -20z"/>
<path d="M8720 5120 c0 -38 1 -40 43 -50 23 -6 92 -26 154 -45 61 -19 114 -35
117 -35 3 0 6 31 6 69 l0 69 -47 16 c-32 11 -82 16 -160 16 l-113 0 0 -40z"/>
<path d="M10052 5147 c-11 -12 -22 -287 -12 -287 3 1 16 24 29 53 30 62 102
142 152 167 20 11 57 24 83 31 34 8 46 16 46 30 0 18 -10 19 -144 19 -105 0
-146 -3 -154 -13z"/>
<path d="M10430 5140 c0 -13 10 -24 28 -31 72 -27 112 -99 112 -199 l0 -70 55
0 55 0 0 148 c0 102 -4 152 -12 160 -8 8 -50 12 -125 12 -107 0 -113 -1 -113
-20z"/>
<path d="M11290 5148 c0 -7 11 -60 24 -118 l24 -105 1 118 1 117 -25 0 c-14 0
-25 -6 -25 -12z"/>
<path d="M11350 5070 c0 -85 1 -91 31 -124 54 -62 169 -103 252 -89 l37 6 0
148 0 149 -160 0 -160 0 0 -90z"/>
<path d="M11680 5015 c0 -80 2 -145 5 -145 3 0 22 7 42 15 45 19 43 20 43 -15
l0 -31 113 3 112 3 3 158 3 157 -161 0 -160 0 0 -145z"/>
<path d="M12012 5003 l3 -158 155 0 155 0 3 158 3 157 -161 0 -161 0 3 -157z"/>
<path d="M12340 5000 c0 -183 6 -194 63 -115 46 65 167 259 167 268 0 4 -52 7
-115 7 l-115 0 0 -160z"/>
<path d="M10691 5002 c-1 -130 1 -154 15 -159 30 -11 39 15 39 110 0 79 -4
100 -27 147 l-26 55 -1 -153z"/>
<path d="M9050 5049 l0 -71 43 -16 c23 -9 90 -40 150 -70 59 -29 112 -50 117
-47 6 3 10 37 10 74 l0 68 -97 46 c-103 48 -197 87 -213 87 -6 0 -10 -32 -10
-71z"/>
<path d="M9934 5053 c-69 -60 -164 -178 -164 -204 0 -5 54 -9 125 -9 l125 0 0
140 c0 77 -2 140 -4 140 -2 0 -39 -30 -82 -67z"/>
<path d="M2052 5065 c-53 -48 -88 -114 -94 -180 l-3 -40 83 -3 82 -3 0 136 c0
74 -4 135 -9 135 -5 0 -31 -20 -59 -45z"/>
<path d="M3670 5076 c-52 -19 -122 -45 -155 -58 l-60 -24 -3 -77 c-2 -42 -1
-77 1 -77 2 0 42 17 88 38 46 22 117 52 157 67 l72 28 0 69 c0 37 -1 68 -2 68
-2 -1 -46 -16 -98 -34z"/>
<path d="M6673 4973 c-28 -65 -49 -121 -46 -125 2 -5 26 -8 54 -8 l49 0 0 125
c0 69 -1 125 -3 125 -1 0 -26 -53 -54 -117z"/>
<path d="M8403 5083 c-10 -3 -13 -38 -13 -124 l0 -119 48 0 c74 0 122 48 122
122 0 78 -91 148 -157 121z"/>
<path d="M7330 5039 c-88 -67 -220 -180 -220 -190 0 -5 51 -9 113 -9 101 0
115 2 140 23 28 22 28 23 25 119 l-3 98 -55 -41z"/>
<path d="M8092 5057 c-59 -63 11 -152 93 -121 27 11 45 62 33 96 -18 52 -88
66 -126 25z"/>
<path d="M8341 5045 c-26 -30 -31 -44 -31 -85 0 -43 5 -55 35 -88 l34 -37 1
123 c0 67 -2 122 -4 122 -2 0 -18 -16 -35 -35z"/>
<path d="M4213 5031 c-58 -36 -81 -120 -47 -169 14 -20 23 -22 114 -22 114 0
120 4 120 84 0 96 -107 157 -187 107z"/>
<path d="M4534 5039 c-22 -11 -44 -48 -44 -74 0 -8 11 -26 23 -41 47 -54 127
-25 127 46 0 57 -57 93 -106 69z"/>
<path d="M8738 5023 c-16 -4 -18 -17 -18 -94 l0 -90 118 3 117 3 -4 30 c-11
97 -120 173 -213 148z"/>
<path d="M8650 4972 c-38 -38 -67 -109 -51 -125 4 -4 30 -7 57 -5 l49 3 3 83
c3 95 -3 100 -58 44z"/>
<path d="M3855 4976 c-49 -22 -77 -59 -73 -97 l3 -34 155 0 c174 0 179 3 138
66 -44 66 -151 97 -223 65z"/>
<path d="M2792 4915 l3 -70 53 -3 c28 -2 52 0 52 4 0 10 -66 97 -90 119 l-21
19 3 -69z"/>
<path d="M3340 4935 c-47 -25 -100 -53 -117 -62 -18 -9 -33 -20 -33 -25 0 -4
56 -8 125 -8 l125 0 0 70 c0 39 -3 70 -7 70 -5 0 -46 -21 -93 -45z"/>
<path d="M5430 4910 l0 -70 77 0 77 0 -59 61 c-92 93 -95 93 -95 9z"/>
<path d="M9380 4911 l0 -71 100 0 c55 0 100 3 100 8 0 6 -70 54 -177 120 l-23
14 0 -71z"/>
<path d="M7733 4904 c-2 -7 -3 -23 -1 -36 3 -23 5 -23 134 -26 125 -2 132 -2
137 18 6 24 3 26 -43 35 -85 15 -222 21 -227 9z"/>
<path d="M7542 4898 c-46 -8 -53 -12 -50 -31 3 -21 9 -22 116 -25 l112 -3 0
36 0 35 -62 -1 c-35 -1 -87 -6 -116 -11z"/>
<path d="M4932 4868 c3 -22 7 -23 78 -23 68 0 75 2 75 20 0 18 -8 20 -78 23
-77 3 -78 2 -75 -20z"/>
<path d="M270 4824 c0 -7 154 -232 185 -269 l25 -30 0 153 0 152 -105 0 c-58
0 -105 -3 -105 -6z"/>
<path d="M490 4675 l0 -155 160 0 160 0 0 155 0 155 -160 0 -160 0 0 -155z"/>
<path d="M820 4675 l0 -155 81 0 c80 0 81 0 75 23 -16 52 -46 204 -46 233 l0
30 71 -23 c39 -13 85 -23 102 -21 28 3 32 7 35 36 l3 32 -160 0 -161 0 0 -155z"/>
<path d="M1150 4799 c0 -29 2 -31 28 -26 15 3 52 17 82 31 l55 25 -82 0 -83 1
0 -31z"/>
<path d="M1960 4811 c0 -35 69 -156 114 -201 l46 -44 0 132 0 132 -80 0 c-71
0 -80 -2 -80 -19z"/>
<path d="M2648 4740 c3 -82 -7 -142 -34 -207 -4 -10 15 -13 80 -13 l86 0 0
155 0 155 -67 0 -68 0 3 -90z"/>
<path d="M2790 4675 l0 -155 113 0 112 0 48 46 48 46 -3 91 -3 91 -67 -57
c-37 -31 -69 -57 -72 -57 -2 0 -9 21 -15 47 -7 25 -19 59 -27 75 -13 26 -19
28 -74 28 l-60 0 0 -155z"/>
<path d="M3138 4816 c-15 -11 -18 -29 -18 -100 0 -47 4 -86 9 -86 4 0 24 13
43 28 33 26 144 99 228 150 l35 22 -140 0 c-101 -1 -145 -4 -157 -14z"/>
<path d="M3780 4761 c0 -65 2 -71 30 -95 34 -28 103 -51 129 -41 10 4 12 3 6
-3 -5 -5 -45 -20 -87 -32 -69 -20 -78 -26 -78 -46 l0 -24 160 0 160 0 0 75 c0
46 -4 75 -10 75 -6 0 -25 -7 -43 -16 -32 -17 -32 -16 11 29 38 42 42 52 42 97
l0 50 -160 0 -160 0 0 -69z"/>
<path d="M4483 4817 l-43 -10 0 -58 c0 -33 1 -59 3 -59 1 0 72 17 157 39 l155
38 3 32 3 31 -118 -1 c-65 -1 -137 -6 -160 -12z"/>
<path d="M4770 4799 c0 -31 0 -31 43 -25 23 3 70 8 105 12 52 5 62 10 62 25 0
17 -9 19 -105 19 l-105 0 0 -31z"/>
<path d="M5100 4811 c0 -16 13 -21 81 -31 45 -6 110 -20 145 -31 60 -19 64
-22 76 -62 l13 -42 3 79 c2 44 1 85 -2 93 -4 10 -40 13 -161 13 -145 0 -155
-1 -155 -19z"/>
<path d="M5430 4771 l0 -60 56 -32 c40 -22 70 -51 103 -95 l46 -64 52 0 51 0
4 71 c3 78 -1 86 -106 197 l-40 42 -83 0 -83 0 0 -59z"/>
<path d="M5857 4818 c4 -7 26 -76 49 -153 l42 -140 61 -3 61 -3 0 156 0 155
-111 0 c-86 0 -108 -3 -102 -12z"/>
<path d="M6090 4675 l0 -155 155 0 155 0 0 155 0 155 -155 0 -155 0 0 -155z"/>
<path d="M6410 4675 l0 -156 158 3 157 3 3 153 3 152 -161 0 -160 0 0 -155z"/>
<path d="M6740 4713 c0 -64 3 -113 7 -110 3 4 28 56 53 117 l48 110 -54 0 -54
0 0 -117z"/>
<path d="M7077 4823 c-4 -3 -7 -60 -7 -126 l0 -120 53 51 c56 52 127 93 212
122 44 15 50 20 53 48 l3 32 -154 0 c-84 0 -157 -3 -160 -7z"/>
<path d="M7400 4805 c0 -21 5 -25 28 -25 36 0 54 13 46 33 -4 11 -18 17 -40
17 -30 0 -34 -3 -34 -25z"/>
<path d="M7987 4811 c-3 -14 2 -21 17 -25 37 -10 46 -7 46 19 0 21 -5 25 -29
25 -20 0 -30 -6 -34 -19z"/>
<path d="M8060 4802 c0 -27 4 -30 58 -42 50 -11 195 -56 245 -75 15 -6 17 0
17 54 l0 60 -52 16 c-33 9 -92 15 -160 15 l-108 0 0 -28z"/>
<path d="M8600 4801 c4 -15 13 -37 19 -49 12 -23 68 -72 82 -72 5 0 9 34 9 75
l0 75 -59 0 -60 0 9 -29z"/>
<path d="M8720 4751 l0 -78 29 -6 c80 -16 176 47 201 133 l9 30 -120 0 -119 0
0 -79z"/>
<path d="M9370 4827 c0 -2 39 -33 88 -70 48 -36 120 -97 160 -137 l72 -71 0
109 0 108 -42 32 c-41 32 -42 32 -160 32 -65 0 -118 -2 -118 -3z"/>
<path d="M9735 4778 c-22 -45 -25 -65 -25 -154 l0 -103 155 0 155 -1 0 155 0
155 -130 0 -130 0 -25 -52z"/>
<path d="M10130 4798 c-41 -68 -34 -177 16 -223 32 -30 105 -48 160 -39 l44 6
0 67 c0 37 -3 71 -7 75 -4 3 -6 29 -4 57 4 76 -12 89 -111 89 -77 0 -78 0 -98
-32z"/>
<path d="M10541 4796 c-32 -52 -96 -104 -135 -112 l-36 -6 0 -65 c0 -62 1 -64
23 -58 58 18 167 85 224 139 56 52 63 62 63 97 l0 39 -59 0 c-57 0 -60 -2 -80
-34z"/>
<path d="M11754 4793 c-3 -21 -22 -79 -40 -129 -19 -51 -34 -104 -34 -118 l0
-26 160 0 160 0 0 155 0 155 -120 0 -119 0 -7 -37z"/>
<path d="M12010 4675 l0 -155 46 0 c42 0 48 4 101 61 101 109 173 203 173 226
0 23 0 23 -160 23 l-160 0 0 -155z"/>
<path d="M4295 4756 c-66 -23 -135 -50 -152 -59 l-33 -18 0 -79 0 -80 103 1
c71 0 95 3 80 9 -43 17 -23 23 57 16 l80 -6 0 44 0 45 -47 6 c-72 10 -72 11
-10 30 l57 19 0 58 c0 32 -3 58 -7 57 -5 0 -62 -19 -128 -43z"/>
<path d="M6983 4726 c-39 -42 -94 -106 -122 -141 l-51 -65 108 0 c146 0 144
-2 140 160 l-3 123 -72 -77z"/>
<path d="M2402 4774 c-33 -23 -52 -67 -52 -119 0 -44 -1 -45 -32 -45 -47 1
-108 31 -145 73 -18 21 -34 37 -35 37 -2 0 -2 -37 -1 -82 2 -113 10 -118 186
-118 l127 0 0 135 c0 144 -3 151 -48 119z"/>
<path d="M2460 4656 l0 -136 44 0 c42 0 45 2 60 40 9 22 16 65 16 95 0 49 -4
60 -32 90 -18 19 -45 37 -60 41 l-28 6 0 -136z"/>
<path d="M8390 4655 l0 -135 160 0 160 0 0 70 0 70 -61 31 c-63 31 -233 99
-250 99 -5 0 -9 -60 -9 -135z"/>
<path d="M8295 4663 c-33 -1 -99 -8 -147 -14 l-88 -12 0 -50 c0 -39 3 -48 15
-44 8 4 80 14 160 23 l146 17 -3 40 c-3 45 -1 44 -83 40z"/>
<path d="M11459 4660 c-20 -4 -51 -15 -70 -26 -30 -18 -34 -25 -37 -67 l-3
-47 161 0 161 0 -3 37 c-3 32 -9 41 -50 66 -54 34 -107 46 -159 37z"/>
<path d="M8720 4589 l0 -69 183 1 182 0 -84 40 c-47 22 -129 52 -183 68 l-98
29 0 -69z"/>
<path d="M5760 4581 l0 -61 46 0 46 0 -28 38 c-15 20 -36 48 -46 61 l-18 24 0
-62z"/>
<path d="M4440 4587 c0 -56 3 -57 183 -64 l137 -6 0 31 c0 29 -3 31 -55 41
-96 19 -158 29 -212 36 l-53 6 0 -44z"/>
<path d="M7883 4595 c-145 -37 -153 -40 -153 -61 0 -11 22 -14 116 -14 63 0
135 5 160 11 44 11 44 12 44 55 0 54 6 54 -167 9z"/>
<path d="M10038 4575 c4 -51 6 -55 29 -55 13 0 23 3 21 8 -1 4 -11 28 -22 55
-10 26 -21 47 -25 47 -3 0 -4 -25 -3 -55z"/>
<path d="M1150 4550 l0 -30 98 0 97 1 -60 23 c-33 13 -77 26 -97 30 -37 7 -38
6 -38 -24z"/>
<path d="M4770 4549 l0 -29 108 1 c59 1 98 4 87 6 -11 3 -59 16 -107 28 l-88
23 0 -29z"/>
<path d="M1060 4545 l-45 -24 63 -1 c60 0 62 1 62 25 0 32 -20 32 -80 0z"/>
<path d="M8548 4502 l-158 -2 0 -50 c0 -28 2 -50 4 -50 2 0 28 11 57 25 30 13
93 33 140 45 l86 20 87 -25 c105 -30 146 -50 214 -104 28 -23 54 -41 57 -41 3
0 5 40 5 90 l0 89 -167 3 c-93 2 -239 2 -325 0z"/>
<path d="M558 4433 c76 -87 228 -233 242 -233 6 0 10 54 10 150 l0 150 -156 0
-156 0 60 -67z"/>
<path d="M820 4345 l0 -155 160 0 160 0 0 154 0 155 -160 0 -160 0 0 -154z"/>
<path d="M1150 4345 l0 -155 88 0 88 0 19 32 c51 83 58 158 23 228 l-23 45
-97 3 -98 3 0 -156z"/>
<path d="M2573 4453 c-15 -27 -47 -72 -70 -100 -39 -48 -43 -58 -43 -108 l0
-55 98 0 99 0 61 64 62 64 0 91 0 91 -90 0 -89 0 -28 -47z"/>
<path d="M2790 4419 c0 -44 3 -78 8 -75 4 2 19 34 32 70 27 71 41 85 35 34 -2
-18 -7 -84 -9 -145 l-6 -113 69 0 68 0 7 77 c3 42 6 111 6 155 l0 78 -105 0
-105 0 0 -81z"/>
<path d="M3578 4471 c-25 -16 -65 -46 -87 -66 l-41 -37 0 -89 0 -89 41 0 c37
0 48 7 114 68 40 37 94 79 119 93 l46 24 0 62 0 63 -73 0 c-64 0 -79 -4 -119
-29z"/>
<path d="M3780 4444 c0 -54 1 -56 23 -50 110 32 147 38 219 34 l78 -3 0 37 0
38 -160 0 -160 0 0 -56z"/>
<path d="M4110 4461 c0 -38 1 -39 59 -60 91 -33 143 -66 200 -126 29 -30 54
-55 57 -55 2 0 4 53 4 118 l0 118 -39 22 c-34 19 -54 22 -160 22 l-121 0 0
-39z"/>
<path d="M4751 4496 c5 -4 325 -116 333 -116 3 0 6 22 6 48 0 43 -3 50 -25 60
-23 11 -325 18 -314 8z"/>
<path d="M5693 4430 c23 -38 44 -70 47 -70 3 0 4 31 2 70 l-4 70 -44 0 -44 0
43 -70z"/>
<path d="M5760 4411 c0 -77 4 -97 30 -155 l30 -66 125 0 125 0 0 155 0 155
-59 0 -59 0 15 -49 c8 -28 13 -69 11 -92 l-3 -42 -54 91 -54 92 -54 0 -53 0 0
-89z"/>
<path d="M6090 4345 l0 -155 155 0 155 0 0 155 0 155 -155 0 -155 0 0 -155z"/>
<path d="M6410 4345 l0 -155 160 0 160 0 0 108 0 107 -21 -32 c-12 -18 -22
-33 -23 -33 -4 0 12 114 20 138 l6 22 -151 0 -151 0 0 -155z"/>
<path d="M6768 4461 c-27 -37 -28 -45 -28 -155 l0 -116 43 0 c42 0 43 1 71 58
15 31 54 95 85 142 31 47 60 91 64 98 6 9 -16 12 -100 12 l-108 0 -27 -39z"/>
<path d="M7483 4460 l-83 -39 0 -60 c0 -34 2 -61 5 -61 2 0 28 14 57 32 29 17
98 51 153 74 86 37 100 47 103 68 3 26 3 26 -75 26 -70 -1 -87 -5 -160 -40z"/>
<path d="M8199 4451 c-30 -27 -74 -74 -97 -104 -37 -47 -42 -60 -42 -105 l0
-52 54 0 53 0 107 105 106 106 0 49 0 50 -62 0 c-61 0 -65 -2 -119 -49z"/>
<path d="M9050 4399 l0 -100 48 -55 47 -54 113 0 c97 0 112 2 112 16 0 27 -96
148 -177 224 -62 58 -81 70 -109 70 l-34 0 0 -101z"/>
<path d="M9710 4345 l0 -155 43 0 42 0 1 155 2 155 -44 0 -44 0 0 -155z"/>
<path d="M9856 4430 c20 -39 65 -101 100 -138 l63 -67 1 138 0 137 -101 0
-100 0 37 -70z"/>
<path d="M10040 4357 c0 -98 4 -147 12 -155 8 -8 57 -12 155 -12 l143 0 0 24
c0 17 -10 31 -34 45 -45 28 -159 150 -188 201 -19 34 -28 40 -55 40 l-33 0 0
-143z"/>
<path d="M11274 4455 c-3 -26 -1 -65 5 -91 12 -46 47 -124 56 -124 3 0 5 59 5
130 l0 130 -29 0 c-28 0 -30 -3 -37 -45z"/>
<path d="M11350 4371 c0 -104 3 -131 15 -141 9 -7 14 -19 11 -27 -4 -10 23
-13 144 -13 l150 0 0 155 0 155 -160 0 -160 0 0 -129z"/>
<path d="M11680 4340 c0 -88 3 -160 6 -160 17 0 209 144 277 209 30 28 37 42
37 73 l0 38 -160 0 -160 0 0 -160z"/>
<path d="M12010 4470 c0 -16 4 -30 8 -30 5 0 21 14 37 30 l29 30 -37 0 c-34 0
-37 -2 -37 -30z"/>
<path d="M5100 4417 c0 -51 2 -55 29 -67 16 -6 80 -45 142 -86 62 -41 119 -74
126 -74 9 0 13 18 13 60 l0 60 -52 34 c-58 37 -200 109 -235 120 -22 7 -23 5
-23 -47z"/>
<path d="M4440 4318 l0 -128 91 0 90 0 -38 72 c-21 40 -61 97 -90 127 l-52 56
-1 -127z"/>
<path d="M7286 4356 c-165 -104 -262 -181 -391 -311 -71 -71 -157 -167 -190
-212 -33 -45 -61 -80 -63 -79 -1 2 4 22 12 45 11 33 11 43 2 47 -7 3 -64 3
-127 2 l-114 -3 -3 -157 -3 -158 123 0 123 1 35 57 c33 53 35 64 40 162 l5
105 75 5 75 5 88 85 87 85 0 78 0 77 95 0 95 0 70 51 70 51 0 59 c0 33 -4 59
-8 59 -5 0 -48 -24 -96 -54z"/>
<path d="M3361 4277 l-73 -82 72 -3 c40 -2 74 -1 77 1 2 3 3 41 1 85 l-3 81
-74 -82z"/>
<path d="M7567 4298 c-22 -6 -60 -30 -90 -59 l-52 -48 148 -1 147 0 0 54 c0
47 -3 54 -22 60 -32 8 -86 6 -131 -6z"/>
<path d="M5430 4246 l0 -56 72 0 c40 0 68 4 63 8 -6 5 -38 30 -72 56 l-63 47
0 -55z"/>
<path d="M2390 4240 l-55 -50 58 0 57 0 0 50 c0 28 -1 50 -2 50 -2 -1 -28 -23
-58 -50z"/>
<path d="M7730 4240 l0 -50 63 0 62 1 -53 49 c-29 28 -58 50 -63 50 -5 0 -9
-22 -9 -50z"/>
<path d="M4883 4255 c-28 -14 -58 -34 -68 -45 -18 -20 -17 -20 128 -20 l147 0
0 35 c0 29 -5 37 -26 45 -48 18 -127 12 -181 -15z"/>
<path d="M10967 4262 c-28 -19 -56 -51 -57 -64 0 -5 23 -8 50 -8 l50 0 0 45
c0 50 -3 53 -43 27z"/>
<path d="M11020 4235 l0 -45 60 0 61 0 -16 31 c-15 27 -65 59 -95 59 -5 0 -10
-20 -10 -45z"/>
<path d="M5100 4226 c0 -35 1 -36 40 -36 22 0 40 2 40 4 0 2 -18 19 -40 36
l-40 32 0 -36z"/>
<path d="M9380 4033 l0 -173 80 0 c44 0 80 2 80 4 0 26 -94 233 -140 308 l-20
33 0 -172z"/>
<path d="M840 4169 c0 -3 43 -34 95 -70 l96 -64 52 -105 52 -105 3 88 c1 48 1
125 0 172 l-3 85 -148 3 c-81 1 -147 -1 -147 -4z"/>
<path d="M1150 4018 l0 -158 54 0 c51 0 54 1 49 23 l-6 22 25 -22 c20 -19 36
-23 87 -23 42 0 60 3 55 11 -4 7 4 10 22 7 l29 -3 0 88 0 89 -88 28 c-133 43
-124 36 -93 69 l27 28 -81 -1 -80 -1 0 -157z"/>
<path d="M1537 4163 c-33 -38 -57 -125 -57 -209 l0 -81 31 -7 c17 -3 87 -6
155 -6 l124 0 0 80 0 80 -29 0 c-27 0 -29 2 -33 55 -7 81 -33 105 -113 105
-46 0 -66 -4 -78 -17z"/>
<path d="M2228 4132 l-83 -42 -5 -85 c-3 -47 -1 -85 3 -85 19 0 157 53 227 88
l75 37 3 65 3 65 -70 0 c-63 0 -79 -4 -153 -43z"/>
<path d="M2464 4171 c-7 -8 -4 -111 4 -111 10 0 162 104 162 111 0 7 -159 6
-166 0z"/>
<path d="M2845 4155 c-2 -11 -12 -69 -20 -130 -9 -60 -19 -122 -22 -137 l-5
-28 71 0 c65 0 71 2 76 23 4 19 31 215 38 270 2 17 -6 19 -66 20 -60 2 -68 0
-72 -18z"/>
<path d="M3255 4145 c-13 -16 -48 -71 -79 -121 -41 -67 -56 -100 -56 -127 l0
-37 90 0 90 0 26 43 c15 23 47 72 71 109 39 59 44 73 41 114 l-3 46 -79 1
c-77 2 -79 1 -101 -28z"/>
<path d="M3825 4166 l-40 -12 -3 -147 -3 -147 161 0 160 0 0 118 c0 116 -1
119 -28 145 -54 52 -158 70 -247 43z"/>
<path d="M4455 4171 c-2 -2 3 -13 11 -26 26 -40 62 -142 75 -214 l12 -71 64 0
63 0 0 44 c0 51 -23 174 -42 229 l-14 38 -83 2 c-45 1 -84 0 -86 -2z"/>
<path d="M4930 4172 c-100 -2 -147 -6 -152 -15 -12 -19 -9 -196 3 -220 6 -12
23 -34 37 -49 25 -28 27 -28 149 -28 l123 0 0 154 c0 85 -3 156 -7 158 -5 2
-73 2 -153 0z"/>
<path d="M5100 4021 c0 -152 1 -161 19 -161 23 0 68 51 89 100 20 47 19 137
-2 178 -13 25 -23 32 -45 32 -16 0 -36 3 -45 6 -14 5 -16 -12 -16 -155z"/>
<path d="M5411 4170 c0 -3 37 -36 81 -74 44 -38 117 -112 162 -163 l81 -94 5
88 c6 104 1 115 -90 194 l-59 51 -90 2 c-50 1 -91 -1 -90 -4z"/>
<path d="M5832 4165 c2 -5 25 -76 53 -157 l49 -148 68 0 68 0 0 158 0 157
-120 0 c-76 0 -119 -4 -118 -10z"/>
<path d="M6090 4018 l0 -158 155 0 155 0 0 155 0 154 -155 3 -155 3 0 -157z"/>
<path d="M6414 4171 c-2 -2 -4 -73 -4 -158 l0 -153 133 0 133 0 27 65 c23 55
27 81 27 158 l0 92 -156 0 c-86 0 -158 -2 -160 -4z"/>
<path d="M6743 4164 c-2 -6 -3 -40 -1 -75 l3 -64 33 69 c17 37 32 71 32 75 0
11 -62 7 -67 -5z"/>
<path d="M7074 4171 c-8 -8 -4 -123 4 -119 12 5 141 112 141 118 1 6 -139 7
-145 1z"/>
<path d="M7418 4163 c-6 -7 -13 -41 -15 -76 -7 -77 21 -151 74 -197 33 -29 36
-30 139 -30 l105 0 -3 156 -3 155 -143 2 c-104 1 -147 -1 -154 -10z"/>
<path d="M7734 4171 c-2 -2 -4 -73 -4 -158 0 -145 1 -153 20 -153 31 0 86 55
110 112 18 42 21 64 17 116 -3 35 -9 68 -15 74 -10 10 -119 17 -128 9z"/>
<path d="M7987 4138 c-24 -64 -45 -151 -53 -218 l-7 -60 62 0 62 0 -3 158 c-3
151 -4 157 -24 160 -17 2 -24 -6 -37 -40z"/>
<path d="M8063 4164 c-2 -6 -2 -57 -1 -115 l3 -104 19 50 c10 28 32 76 47 109
16 32 29 61 29 65 0 11 -92 7 -97 -5z"/>
<path d="M8548 4157 c-67 -62 -88 -178 -48 -257 l20 -40 95 0 96 0 -3 158 -3
157 -66 3 c-57 2 -68 0 -91 -21z"/>
<path d="M8720 4020 l0 -160 156 0 157 0 -6 59 c-11 101 -55 190 -118 237 -28
21 -44 24 -111 24 l-78 0 0 -160z"/>
<path d="M9160 4173 c0 -1 20 -33 44 -71 25 -38 71 -118 103 -178 l58 -109 3
93 c1 51 1 131 0 178 l-3 85 -103 2 c-56 1 -102 1 -102 0z"/>
<path d="M9710 4018 l0 -158 53 0 53 0 -4 93 c-2 50 -7 121 -10 156 l-7 64
-43 1 -42 1 0 -157z"/>
<path d="M10090 4174 c0 -7 79 -49 163 -89 l97 -44 0 67 0 67 -130 0 c-72 1
-130 0 -130 -1z"/>
<path d="M10369 4175 c0 -3 0 -35 -1 -72 l0 -68 50 -23 c27 -12 97 -33 156
-46 l106 -23 0 83 c0 73 -2 84 -17 84 -10 0 -63 16 -118 35 -87 30 -174 45
-176 30z"/>
<path d="M10903 4167 c-2 -4 -2 -20 2 -36 6 -26 3 -29 -29 -35 -20 -4 -70 -4
-111 0 l-75 7 0 -80 0 -80 38 -7 c20 -3 92 -6 160 -6 l123 0 -3 121 -3 122
-48 1 c-27 0 -51 -2 -54 -7z"/>
<path d="M11024 4171 c-2 -2 -4 -56 -4 -119 l0 -115 60 6 c33 4 73 10 88 13
29 7 30 8 -73 -78 -19 -17 -17 -17 55 -18 l75 0 58 51 57 51 0 109 c0 60 -3
109 -6 109 -4 0 -37 -9 -73 -19 -116 -33 -119 -34 -123 -10 -3 19 -10 22 -56
23 -30 0 -56 -1 -58 -3z"/>
<path d="M11354 4171 c-2 -2 -4 -47 -4 -98 0 -66 3 -92 11 -87 8 5 8 1 0 -14
-6 -11 -11 -41 -11 -66 l0 -46 49 0 50 0 34 58 c19 31 51 89 71 129 27 50 49
79 77 97 21 15 39 27 39 29 0 4 -311 2 -316 -2z"/>
<path d="M3705 4099 c-46 -43 -100 -138 -115 -203 l-8 -36 94 0 94 0 0 140 c0
89 -4 140 -10 140 -6 0 -31 -19 -55 -41z"/>
<path d="M2045 4059 c-33 -10 -99 -24 -147 -31 l-88 -12 0 -78 0 -78 44 0 c42
0 145 18 229 41 l37 10 0 84 c0 47 -3 85 -7 84 -5 0 -35 -9 -68 -20z"/>
<path d="M7153 4060 c-44 -27 -66 -73 -60 -127 7 -68 16 -73 127 -73 l98 0 16
34 c21 44 20 73 -2 115 -35 65 -118 89 -179 51z"/>
<path d="M5309 4021 c-34 -34 -39 -45 -39 -84 0 -74 3 -77 79 -77 l66 0 0 100
0 100 -34 0 c-25 0 -42 -9 -72 -39z"/>
<path d="M5430 3960 l0 -100 44 0 c50 0 56 8 56 77 0 39 -5 50 -39 84 -21 22
-44 39 -50 39 -7 0 -11 -33 -11 -100z"/>
<path d="M5760 3930 l0 -70 60 0 61 0 -57 70 c-31 39 -58 70 -60 70 -2 0 -4
-31 -4 -70z"/>
<path d="M3065 3823 c-35 -73 -94 -219 -110 -270 -6 -23 -5 -23 74 -23 l81 0
0 185 c0 102 -2 185 -4 185 -2 0 -20 -35 -41 -77z"/>
<path d="M1150 3824 c0 -29 29 -83 113 -206 l59 -87 76 -3 77 -3 3 -88 3 -87
52 -42 c106 -84 152 -108 207 -108 48 0 50 1 50 28 0 22 -15 38 -85 90 -126
94 -300 295 -397 459 l-43 73 -57 0 c-56 0 -58 -1 -58 -26z"/>
<path d="M1321 3843 c0 -9 125 -116 140 -121 5 -2 9 21 9 52 0 44 -4 57 -19
66 -22 11 -131 14 -130 3z"/>
<path d="M2797 3843 c-4 -3 -7 -75 -7 -160 l0 -153 54 0 55 0 5 43 c3 23 13
93 21 155 8 62 15 115 15 117 0 8 -136 6 -143 -2z"/>
<path d="M3127 3843 c-4 -3 -7 -83 -6 -177 0 -165 1 -170 16 -136 9 19 46 96
82 170 36 74 67 138 69 143 4 9 -152 10 -161 0z"/>
<path d="M3576 3819 c-9 -46 -6 -144 8 -219 l11 -65 86 -3 87 -3 -19 68 c-11
37 -19 94 -19 127 0 59 0 59 21 40 20 -18 20 -18 17 31 l-3 50 -91 3 -91 3 -7
-32z"/>
<path d="M3787 3843 c-4 -3 -7 -28 -7 -54 l0 -47 50 -12 c56 -13 104 -8 166
19 42 19 114 77 114 92 0 10 -313 13 -323 2z"/>
<path d="M4556 3838 c-2 -7 -9 -47 -15 -88 -7 -45 -25 -104 -46 -147 l-34 -73
149 0 150 0 0 50 c0 28 -3 50 -7 50 -3 0 -26 -12 -50 -26 -25 -14 -47 -23 -50
-20 -3 3 0 27 6 53 7 26 15 84 18 130 l6 83 -62 0 c-41 0 -63 -4 -65 -12z"/>
<path d="M5255 3842 c15 -14 110 -42 140 -42 22 0 26 4 23 23 -3 21 -9 22 -88
25 -51 2 -81 -1 -75 -6z"/>
<path d="M5574 3825 c-31 -47 3 -105 60 -105 41 0 66 26 66 68 0 41 -23 62
-70 62 -31 0 -43 -5 -56 -25z"/>
<path d="M5756 3833 c-4 -10 2 -29 16 -47 47 -64 104 -154 127 -204 l24 -52
74 0 73 0 0 160 0 160 -65 0 c-36 0 -65 -3 -65 -7 0 -5 7 -29 15 -55 8 -27 12
-48 10 -48 -3 0 -21 25 -41 55 l-37 55 -62 0 c-50 0 -64 -4 -69 -17z"/>
<path d="M6090 3690 l0 -160 155 0 155 0 0 160 0 160 -155 0 -155 0 0 -160z"/>
<path d="M6744 3837 c-3 -8 -4 -47 -2 -87 l3 -72 63 80 c34 45 62 83 62 86 0
4 -27 6 -60 6 -42 0 -62 -4 -66 -13z"/>
<path d="M6902 3822 c-11 -33 -1 -65 30 -86 30 -21 60 -20 85 4 28 26 36 52
24 84 -10 24 -15 26 -70 26 -55 0 -60 -2 -69 -28z"/>
<path d="M7932 3725 c3 -69 3 -124 -1 -122 -32 17 -161 76 -178 81 -22 7 -23
5 -23 -56 0 -60 2 -64 31 -80 25 -15 55 -18 160 -18 l130 0 -3 158 -3 157 -59
3 -59 3 5 -126z"/>
<path d="M8530 3842 c0 -13 108 -68 148 -77 l33 -7 -3 44 -3 43 -87 3 c-49 1
-88 -1 -88 -6z"/>
<path d="M8720 3804 l0 -46 33 6 c17 3 52 21 76 38 l44 31 -7 -65 c-6 -67 -31
-149 -60 -207 l-17 -32 93 3 92 3 24 75 c22 70 44 225 33 235 -2 3 -73 5 -158
5 l-153 0 0 -46z"/>
<path d="M9380 3814 c0 -19 16 -85 36 -147 20 -62 38 -118 40 -124 5 -18 164
-18 164 0 0 18 -56 246 -69 280 -10 26 -12 27 -91 27 l-80 0 0 -36z"/>
<path d="M9710 3690 l0 -160 54 0 53 0 7 61 c5 45 10 58 19 51 7 -5 49 -33 95
-61 l82 -51 0 72 c0 73 0 73 -36 98 -20 13 -66 53 -102 87 -63 61 -66 63 -118
63 l-54 0 0 -160z"/>
<path d="M11036 3831 c-12 -13 -16 -32 -14 -66 l3 -46 75 51 c117 80 117 80
29 80 -62 0 -79 -4 -93 -19z"/>
<path d="M11204 3753 c-117 -149 -277 -301 -405 -385 l-109 -72 0 -53 0 -52
63 28 c62 28 174 94 229 134 27 20 28 25 28 99 l0 77 92 3 92 3 73 85 73 84 0
73 0 73 -30 0 c-25 0 -40 -13 -106 -97z"/>
<path d="M11354 3836 c-3 -7 -4 -35 -2 -62 l3 -49 38 55 c20 30 37 58 37 62 0
14 -70 9 -76 -6z"/>
<path d="M1480 3761 l0 -60 73 -49 c95 -64 200 -122 220 -122 13 0 17 10 17
43 0 42 -1 43 -67 81 -38 21 -107 68 -155 103 l-88 64 0 -60z"/>
<path d="M10945 3774 c-27 -19 -96 -57 -152 -85 l-103 -51 0 -44 c0 -24 4 -44
8 -44 11 0 238 114 280 139 29 19 32 25 32 71 0 27 -3 50 -7 49 -5 0 -30 -16
-58 -35z"/>
<path d="M2744 3749 c-52 -55 -167 -137 -249 -178 l-80 -40 130 0 130 -1 53
35 52 36 0 89 c0 50 -1 90 -3 90 -2 0 -16 -14 -33 -31z"/>
<path d="M7300 3743 c-57 -5 -152 -22 -192 -33 l-38 -11 0 -71 c0 -63 2 -69
18 -63 55 21 195 57 245 62 l57 6 0 58 c0 66 6 62 -90 52z"/>
<path d="M7400 3696 c0 -32 4 -56 10 -56 55 0 214 -26 254 -41 28 -10 52 -19
54 -19 1 0 2 26 2 59 0 66 8 60 -110 85 -36 8 -98 17 -137 21 l-73 7 0 -56z"/>
<path d="M5113 3724 c-8 -3 -13 -26 -13 -60 l0 -54 88 0 c48 0 114 -7 147 -15
33 -8 65 -14 70 -15 6 0 9 26 7 64 -3 49 -8 66 -20 71 -22 9 -263 17 -279 9z"/>
<path d="M5025 3713 c-87 -19 -148 -36 -197 -54 l-58 -21 0 -54 0 -54 39 0
c21 0 59 9 85 20 25 12 78 29 118 39 l73 19 3 56 c3 60 -1 63 -63 49z"/>
<path d="M5430 3640 l0 -69 66 -21 c46 -14 94 -20 156 -20 l89 0 -3 37 c-3 36
-5 38 -85 70 -46 18 -114 42 -153 52 l-70 20 0 -69z"/>
<path d="M6990 3674 c-36 -13 -117 -50 -180 -81 l-115 -58 140 -3 c86 -2 156
2 183 9 l42 12 0 73 c0 41 -1 74 -2 73 -2 0 -32 -12 -68 -25z"/>
<path d="M10040 3595 l0 -65 155 0 155 0 0 25 c0 23 -4 25 -43 25 -50 0 -173
33 -228 61 l-39 19 0 -65z"/>
<path d="M8060 3592 l0 -62 35 0 c19 0 35 2 35 5 0 4 -59 107 -66 114 -2 2 -4
-23 -4 -57z"/>
<path d="M10635 3623 c-61 -21 -171 -43 -219 -43 -49 0 -56 -4 -49 -31 5 -18
15 -19 147 -19 77 0 147 4 154 9 9 5 12 24 10 53 l-3 45 -40 -14z"/>
<path d="M1810 3569 l0 -39 88 1 c73 0 83 2 62 12 -14 6 -53 23 -87 38 l-63
28 0 -40z"/>
<path d="M5760 3559 c0 -28 2 -29 45 -29 25 0 45 2 45 4 0 2 -20 16 -45 29
l-45 26 0 -30z"/>
<path d="M1340 3514 c0 -11 111 -134 121 -134 6 0 9 29 7 68 l-3 67 -62 3
c-35 2 -63 0 -63 -4z"/>
<path d="M1796 3511 c17 -15 167 -69 229 -81 33 -6 68 -14 78 -16 14 -5 17 2
17 44 0 36 -4 52 -16 56 -25 10 -319 7 -308 -3z"/>
<path d="M2223 3513 l-83 -4 0 -49 0 -48 63 -7 c55 -6 219 9 239 21 4 3 8 25
8 50 l0 44 -72 -2 c-40 -1 -110 -4 -155 -5z"/>
<path d="M2467 3513 c-4 -3 -7 -21 -7 -40 0 -23 5 -33 16 -33 18 0 154 57 169
71 5 5 -28 9 -81 9 -50 0 -94 -3 -97 -7z"/>
<path d="M2797 3513 c-4 -3 -7 -75 -7 -160 l0 -154 131 3 132 3 23 100 c13 55
27 126 30 158 l7 58 -83 -3 -84 -3 -25 -107 c-26 -105 -40 -143 -35 -90 2 15
5 66 7 115 l5 87 -47 0 c-26 0 -51 -3 -54 -7z"/>
<path d="M3606 3498 c20 -66 76 -169 117 -213 l46 -50 1 143 0 142 -86 0 c-84
0 -85 0 -78 -22z"/>
<path d="M4440 3360 l0 -160 46 0 c34 0 68 11 126 40 44 22 88 40 98 40 42 0
50 10 50 67 l0 56 -57 -7 -58 -6 26 23 c14 12 40 34 59 48 23 18 32 30 27 42
-6 15 -25 17 -162 17 l-155 0 0 -160z"/>
<path d="M5621 3515 c3 -2 31 -16 62 -30 l57 -25 0 30 0 30 -62 0 c-34 0 -59
-2 -57 -5z"/>
<path d="M5760 3486 c0 -30 6 -37 62 -71 122 -75 177 -141 158 -189 -9 -26 -9
-26 40 -26 l50 0 0 160 0 160 -65 0 c-59 0 -65 -2 -65 -21 l0 -21 -34 21 c-23
15 -50 21 -90 21 l-56 0 0 -34z"/>
<path d="M6090 3360 l0 -160 155 0 155 0 0 160 0 160 -155 0 -155 0 0 -160z"/>
<path d="M6417 3513 c-4 -3 -7 -75 -7 -160 l0 -153 80 0 80 0 0 35 c0 40 35
85 111 141 48 35 49 37 49 90 0 52 -1 54 -28 54 -15 0 -34 -6 -41 -12 -11 -10
-14 -10 -18 0 -3 8 -35 12 -112 12 -59 0 -111 -3 -114 -7z"/>
<path d="M6747 3513 c-8 -7 -10 -93 -3 -93 7 0 188 89 194 95 3 3 -37 5 -90 5
-52 0 -98 -3 -101 -7z"/>
<path d="M7850 3492 c62 -49 97 -85 75 -77 -11 3 -59 9 -107 12 l-88 6 0 -55
0 -55 55 -7 c74 -8 139 -32 203 -72 29 -19 55 -34 57 -34 3 0 5 70 5 155 l0
155 -117 0 -118 -1 35 -27z"/>
<path d="M8060 3360 l0 -160 160 0 160 0 0 95 c0 69 -3 95 -12 95 -24 0 -123
52 -175 91 -41 30 -61 39 -93 39 l-40 0 0 -160z"/>
<path d="M8752 3487 c-32 -33 -32 -33 -32 -140 l0 -108 43 30 c61 42 120 107
161 175 20 33 36 63 36 68 0 4 -40 8 -88 8 -86 0 -89 -1 -120 -33z"/>
<path d="M9464 3503 c10 -33 36 -218 36 -260 l0 -43 85 0 85 0 0 43 c0 23 -10
95 -22 160 l-22 117 -83 0 c-76 0 -84 -2 -79 -17z"/>
<path d="M9710 3360 l0 -160 152 0 151 0 -59 38 c-64 42 -120 99 -135 141 -6
14 -7 51 -4 83 l7 58 -56 0 -56 0 0 -160z"/>
<path d="M10280 3495 c0 -22 4 -25 35 -25 31 0 35 3 35 25 0 22 -4 25 -35 25
-31 0 -35 -3 -35 -25z"/>
<path d="M11027 3513 c-10 -9 -9 -123 1 -123 4 0 39 29 77 65 l70 64 -71 1
c-39 0 -74 -3 -77 -7z"/>
<path d="M3780 3355 l0 -124 30 -16 c22 -11 62 -15 160 -15 l130 0 0 70 0 70
-53 0 c-91 0 -153 25 -213 85 l-54 54 0 -124z"/>
<path d="M4391 3456 c-42 -44 -131 -83 -253 -110 -27 -6 -28 -8 -28 -76 l0
-70 160 0 160 0 0 140 c0 77 -4 140 -8 140 -5 0 -19 -11 -31 -24z"/>
<path d="M9080 3452 c-25 -8 -25 -9 -28 -130 l-3 -122 161 0 160 0 0 80 c0 75
-2 83 -27 107 -58 54 -190 87 -263 65z"/>
<path d="M7635 3416 c-73 -18 -134 -52 -187 -104 -38 -37 -48 -53 -48 -79 0
-33 0 -33 48 -33 39 0 53 5 73 26 33 36 95 71 152 85 l47 11 0 54 c0 61 0 61
-85 40z"/>
<path d="M8650 3409 c-50 -27 -135 -41 -202 -33 l-58 6 0 -91 0 -91 125 0 c96
0 132 4 160 17 l35 17 0 98 c0 108 -1 110 -60 77z"/>
<path d="M8962 3385 c-48 -43 -82 -99 -96 -157 l-6 -28 90 0 90 0 0 115 c0
135 -3 137 -78 70z"/>
<path d="M3333 3410 c-76 -16 -141 -60 -184 -128 -52 -82 -52 -82 131 -82
l160 0 0 104 c0 99 -1 104 -22 110 -27 7 -29 7 -85 -4z"/>
<path d="M3450 3306 l0 -106 110 0 c125 0 126 1 82 71 -41 64 -103 113 -169
133 -23 7 -23 7 -23 -98z"/>
<path d="M4770 3345 l0 -55 48 0 c66 0 113 -15 172 -55 29 -19 63 -35 76 -35
22 0 24 4 24 50 0 47 -2 52 -42 80 -52 38 -154 70 -224 70 l-54 0 0 -55z"/>
<path d="M2752 3341 c-13 -27 -44 -69 -69 -95 l-47 -46 72 0 72 0 0 95 c0 52
-1 95 -3 95 -2 0 -13 -22 -25 -49z"/>
<path d="M9381 3283 l-1 -83 31 0 c29 0 31 2 26 28 -3 16 -17 53 -31 83 l-24
54 -1 -82z"/>
<path d="M5100 3248 l0 -48 35 0 c40 0 39 8 -9 65 l-25 30 -1 -47z"/>
<path d="M10560 3244 l-105 -43 113 -1 112 0 0 45 c0 25 -3 45 -7 44 -5 -1
-55 -21 -113 -45z"/>
<path d="M1810 3165 c0 -22 8 -30 56 -51 58 -26 215 -74 241 -74 10 0 13 10
11 41 l-3 40 -85 31 c-50 18 -113 32 -152 35 -68 5 -68 5 -68 -22z"/>
<path d="M2540 3152 l-75 -38 -3 -47 c-4 -54 0 -56 83 -33 110 29 235 102 235
136 0 18 -7 20 -82 19 -75 0 -90 -4 -158 -37z"/>
<path d="M2797 3183 c-4 -3 -7 -75 -7 -160 l0 -153 115 0 115 0 0 28 c1 38 19
220 26 259 l6 33 -124 0 c-69 0 -128 -3 -131 -7z"/>
<path d="M3120 3102 c0 -80 3 -92 29 -134 16 -25 44 -57 63 -72 32 -24 43 -26
131 -26 l97 0 0 160 0 160 -160 0 -160 0 0 -88z"/>
<path d="M3450 3030 l0 -160 45 0 c38 0 51 6 86 37 66 60 92 113 97 204 l5 79
-117 0 -116 0 0 -160z"/>
<path d="M3870 3184 c0 -13 121 -57 173 -61 l57 -6 0 37 0 36 -115 0 c-63 0
-115 -2 -115 -6z"/>
<path d="M4110 3155 c0 -27 4 -35 18 -35 16 -1 16 -1 0 -11 -13 -7 -18 -23
-18 -60 l0 -49 28 17 27 18 -27 -33 c-22 -27 -28 -44 -28 -83 l0 -49 124 0
124 0 7 49 c4 27 20 77 36 111 20 42 29 77 29 111 l0 49 -160 0 -160 0 0 -35z"/>
<path d="M4440 3148 l0 -42 40 39 c22 21 40 40 40 42 0 2 -18 3 -40 3 l-40 0
0 -42z"/>
<path d="M5100 3143 c1 -27 7 -75 15 -108 8 -33 15 -84 15 -112 l0 -53 65 0
65 0 0 38 c0 49 -34 179 -62 237 -20 42 -25 45 -60 45 l-38 0 0 -47z"/>
<path d="M5949 3118 c-11 -40 -39 -110 -60 -156 -21 -47 -39 -86 -39 -88 0 -2
50 -4 110 -4 l110 0 0 160 0 160 -50 0 -49 0 -22 -72z"/>
<path d="M6090 3030 l0 -160 155 0 155 0 0 160 0 160 -155 0 -155 0 0 -160z"/>
<path d="M6415 3177 c-3 -7 -4 -78 -3 -157 l3 -145 128 -3 c75 -1 127 1 127 7
0 5 -9 31 -21 58 -11 26 -33 93 -48 148 l-28 100 -77 3 c-57 2 -78 -1 -81 -11z"/>
<path d="M7319 3125 c-32 -71 -59 -171 -59 -222 l0 -33 65 0 65 0 0 160 c0
155 -1 160 -21 160 -15 0 -27 -16 -50 -65z"/>
<path d="M7400 3120 c0 -38 2 -70 4 -70 4 0 76 128 76 135 0 3 -18 5 -40 5
l-40 0 0 -70z"/>
<path d="M8070 3184 c0 -3 9 -19 20 -35 40 -55 64 -124 69 -199 l6 -75 107 -3
108 -3 -1 145 c-1 183 6 176 -179 176 -71 0 -130 -3 -130 -6z"/>
<path d="M8860 3162 c0 -44 26 -120 55 -162 23 -33 103 -100 119 -100 4 0 5
64 4 143 l-3 142 -87 3 -88 3 0 -29z"/>
<path d="M9050 3041 c0 -170 -6 -161 101 -161 70 0 134 22 182 61 l38 31 -3
106 -3 107 -157 3 -158 3 0 -150z"/>
<path d="M9380 3078 l1 -113 26 60 c14 33 28 84 31 113 l4 52 -31 0 -31 0 0
-112z"/>
<path d="M9510 3185 c0 -64 -12 -301 -16 -307 -3 -4 40 -8 95 -8 l101 0 0 140
c0 87 -4 140 -10 140 -5 0 -10 9 -10 20 0 18 -7 20 -80 20 -44 0 -80 -2 -80
-5z"/>
<path d="M9710 3070 c0 -112 1 -120 19 -120 16 0 22 11 30 53 14 73 31 169 31
179 0 4 -18 8 -40 8 l-40 0 0 -120z"/>
<path d="M9800 3185 c0 -8 159 -83 193 -91 27 -6 27 -6 27 45 l0 51 -110 0
c-60 0 -110 -2 -110 -5z"/>
<path d="M10040 3137 l0 -54 73 -7 c67 -6 157 -2 215 10 19 4 22 11 22 49 l0
45 -92 -3 c-51 -1 -121 2 -155 6 l-63 8 0 -54z"/>
<path d="M10370 3139 c0 -43 2 -50 18 -45 9 3 37 10 62 16 62 15 230 71 230
76 0 2 -70 4 -155 4 l-155 0 0 -51z"/>
<path d="M8390 3103 l1 -48 97 -56 c192 -112 375 -267 489 -417 l58 -75 3 97
c1 53 -1 104 -6 112 -5 9 -42 45 -83 80 l-74 64 -82 0 -83 0 0 59 c0 69 13 58
-182 160 l-138 73 0 -49z"/>
<path d="M2140 3077 c0 -33 4 -47 18 -52 9 -4 79 -9 155 -12 l137 -6 0 56 0
55 -37 -10 c-38 -10 -208 -5 -250 7 -22 7 -23 4 -23 -38z"/>
<path d="M7737 3103 c-4 -3 -7 -39 -7 -79 l0 -74 26 10 c70 27 144 -7 144 -65
0 -26 1 -26 68 -23 l67 3 3 34 c12 126 -69 200 -219 201 -42 0 -79 -3 -82 -7z"/>
<path d="M7679 3080 c-73 -39 -112 -115 -92 -177 9 -26 14 -28 71 -31 l62 -3
0 116 c0 63 -1 115 -2 115 -2 -1 -19 -10 -39 -20z"/>
<path d="M3999 3041 c-179 -96 -219 -123 -219 -148 0 -21 4 -23 57 -23 52 0
65 5 160 63 l103 62 0 48 c0 26 -3 46 -7 46 -5 -1 -47 -22 -94 -48z"/>
<path d="M4633 3076 c-83 -26 -132 -82 -148 -169 l-7 -37 68 0 c66 0 70 2 86
29 16 28 65 51 111 51 14 0 17 10 17 70 l0 70 -42 -1 c-24 0 -62 -6 -85 -13z"/>
<path d="M4770 3016 c0 -41 5 -78 10 -81 6 -3 10 -19 10 -36 l0 -29 75 0 75 0
0 33 c0 41 -37 115 -70 139 -14 9 -42 24 -62 33 l-38 15 0 -74z"/>
<path d="M8390 2953 l0 -83 65 0 65 0 -35 48 c-19 26 -48 63 -65 82 l-29 35
-1 -82z"/>
<path d="M8720 2920 l0 -50 66 0 c41 0 63 4 59 10 -3 6 -33 28 -66 50 l-59 41
0 -51z"/>
<path d="M4060 2910 l-32 -40 36 0 c35 0 36 1 36 40 0 22 -2 40 -4 40 -2 0
-19 -18 -36 -40z"/>
<path d="M2791 2783 c0 -43 8 -114 17 -158 l17 -80 109 -3 108 -3 -5 23 c-3
13 -9 85 -13 161 l-7 137 -113 0 -114 0 1 -77z"/>
<path d="M3625 2804 c-38 -30 -94 -78 -122 -107 -51 -49 -53 -54 -53 -104 l0
-53 35 0 c28 0 40 8 71 45 21 24 77 79 126 121 82 72 88 79 88 115 0 38 -1 39
-37 39 -30 -1 -52 -12 -108 -56z"/>
<path d="M3780 2825 l0 -36 45 31 c25 17 45 33 45 35 0 3 -20 5 -45 5 -45 0
-45 0 -45 -35z"/>
<path d="M3946 2765 c-67 -94 -113 -162 -135 -204 -11 -20 -10 -21 58 -21 l70
0 32 58 c18 31 54 93 81 138 26 45 48 91 48 103 0 18 -6 21 -42 21 -43 0 -44
-1 -112 -95z"/>
<path d="M4116 2844 c-3 -8 -6 -81 -6 -160 l0 -144 151 0 c140 0 151 1 146 18
-31 93 -46 162 -50 224 l-4 73 -116 3 c-98 2 -116 0 -121 -14z"/>
<path d="M4487 2828 c21 -115 93 -216 185 -262 74 -37 88 -35 88 14 0 34 -6
45 -40 76 -50 45 -81 95 -96 154 l-11 45 -66 3 -67 3 7 -33z"/>
<path d="M4790 2834 l75 -24 63 21 c34 11 62 23 62 25 0 2 -62 4 -137 3 l-138
-1 75 -24z"/>
<path d="M5111 2803 c-7 -32 -11 -95 -9 -141 l3 -82 38 31 c48 40 81 91 101
159 27 89 26 90 -53 90 l-68 0 -12 -57z"/>
<path d="M5800 2798 c-39 -62 -40 -64 -40 -160 l0 -98 155 0 155 0 0 160 0
160 -115 0 -115 0 -40 -62z"/>
<path d="M6090 2703 c1 -154 1 -157 18 -128 l17 30 3 -32 3 -33 121 0 c111 0
120 1 125 20 3 11 9 20 14 20 5 0 9 63 9 140 l0 140 -155 0 -155 0 0 -157z"/>
<path d="M6414 2847 c-2 -7 -3 -78 -2 -157 l3 -145 158 -3 157 -3 0 116 c0
107 -2 120 -26 161 l-26 44 -129 0 c-97 0 -131 -3 -135 -13z"/>
<path d="M7260 2827 c0 -54 29 -123 72 -171 22 -26 44 -46 49 -46 5 0 9 56 9
125 l0 125 -65 0 -65 0 0 -33z"/>
<path d="M7876 2815 c-20 -50 -96 -141 -126 -150 -17 -5 -20 -16 -20 -61 l0
-54 43 17 c62 24 142 79 172 119 23 30 85 153 85 169 0 3 -30 5 -67 5 l-68 0
-19 -45z"/>
<path d="M8152 2793 c-7 -38 -29 -104 -48 -148 -19 -44 -38 -86 -41 -92 -4
-10 31 -13 156 -13 l161 0 0 160 0 160 -108 0 -107 0 -13 -67z"/>
<path d="M8435 2818 c24 -39 95 -184 123 -250 11 -27 15 -28 77 -28 38 0 65 4
65 10 0 16 -33 78 -106 202 l-65 108 -60 0 -60 0 26 -42z"/>
<path d="M9485 2803 c-4 -32 -15 -100 -26 -152 -10 -51 -19 -97 -19 -102 0 -5
47 -9 105 -9 l104 0 21 66 c14 47 20 94 20 160 l0 94 -99 0 -99 0 -7 -57z"/>
<path d="M9244 2820 c-11 -4 -33 -22 -47 -40 -48 -57 -31 -155 33 -194 33 -19
111 -21 128 -4 8 8 12 49 12 120 0 96 -2 108 -19 118 -23 12 -77 12 -107 0z"/>
<path d="M9382 2700 l0 -135 24 50 c30 62 29 106 -1 170 l-23 50 0 -135z"/>
<path d="M3153 2765 l-33 -14 0 -106 0 -105 75 0 c62 0 78 3 95 20 62 62 46
161 -31 200 -45 23 -63 24 -106 5z"/>
<path d="M7403 2690 l2 -95 66 -22 c74 -25 184 -39 223 -29 24 6 26 11 26 55
l0 50 -32 -10 c-100 -28 -201 17 -271 121 -16 24 -16 22 -14 -70z"/>
<path d="M6742 2638 l3 -93 73 -3 c41 -2 72 1 70 6 -7 18 -133 181 -141 182
-4 0 -6 -42 -5 -92z"/>
<path d="M5034 2670 c-61 -57 -156 -82 -232 -61 l-32 10 0 -40 0 -39 120 0
c87 0 131 4 160 16 l40 16 0 69 c0 38 -3 69 -7 69 -5 0 -27 -18 -49 -40z"/>
<path d="M5668 2626 c-38 -41 -68 -77 -68 -80 0 -3 32 -6 70 -6 l70 0 0 80 c0
44 -1 80 -2 80 -2 0 -33 -34 -70 -74z"/>
<path d="M9050 2622 l0 -82 60 0 c71 0 71 -3 -10 99 l-50 65 0 -82z"/>
<path d="M3397 2592 c-20 -21 -37 -41 -37 -45 0 -4 18 -7 40 -7 l40 0 0 45 c0
25 -1 45 -3 45 -2 0 -20 -17 -40 -38z"/>
<path d="M2830 2523 c0 -14 41 -178 61 -245 l20 -68 94 0 c52 0 95 4 95 8 0 5
-11 60 -24 123 -14 63 -27 131 -31 152 l-6 37 -104 0 c-58 0 -105 -3 -105 -7z"/>
<path d="M3287 2448 c-61 -92 -117 -199 -117 -223 0 -12 14 -15 73 -15 l74 0
19 42 c10 23 38 76 61 117 32 56 43 85 43 118 l0 43 -49 0 -50 0 -54 -82z"/>
<path d="M3787 2523 c-4 -3 -7 -90 -6 -192 l0 -186 38 105 c21 58 54 143 74
189 20 47 37 86 37 88 0 6 -137 3 -143 -4z"/>
<path d="M4110 2370 l0 -160 160 0 160 0 0 160 0 160 -160 0 -160 0 0 -160z"/>
<path d="M5507 2463 l-77 -67 0 -93 0 -93 155 0 155 0 0 160 0 160 -78 0 -79
0 -76 -67z"/>
<path d="M5760 2370 l0 -160 75 0 75 0 31 48 c30 48 139 256 139 266 0 3 -72
6 -160 6 l-160 0 0 -160z"/>
<path d="M6134 2513 c3 -10 12 -67 21 -128 8 -60 18 -125 21 -142 l5 -33 62 0
62 0 28 138 c15 75 30 147 33 160 6 22 6 22 -116 22 -111 0 -121 -2 -116 -17z"/>
<path d="M6410 2510 c0 -22 27 -85 91 -214 l42 -86 94 0 93 0 0 160 0 160
-160 0 c-153 0 -160 -1 -160 -20z"/>
<path d="M6742 2373 l3 -158 158 -3 157 -3 0 93 0 93 -60 49 c-33 26 -65 57
-71 67 -8 16 -22 19 -100 19 l-90 0 3 -157z"/>
<path d="M8060 2370 l0 -159 148 -4 147 -3 -147 -2 -148 -2 0 -160 0 -160 79
0 79 0 22 53 c13 28 38 93 56 142 25 67 33 82 34 59 0 -16 10 -59 23 -95 l22
-64 3 118 3 117 111 0 c61 0 108 3 104 7 -4 4 -28 15 -54 25 -53 20 -113 23
-143 8 -16 -9 -19 -7 -20 12 -1 21 -2 20 -14 -7 -19 -40 -18 -19 0 52 8 31 15
95 15 140 l0 83 -160 0 -160 0 0 -160z"/>
<path d="M8591 2473 c17 -50 42 -144 63 -235 5 -21 12 -28 31 -28 l25 0 0 160
0 160 -69 0 -70 0 20 -57z"/>
<path d="M9050 2505 c0 -14 13 -51 29 -83 16 -31 41 -92 56 -134 l28 -78 73 0
c41 0 74 2 74 4 0 23 -52 159 -86 229 l-44 87 -65 0 c-63 0 -65 -1 -65 -25z"/>
<path d="M9406 2452 c-20 -58 -26 -98 -26 -160 l0 -82 69 0 68 0 31 68 c31 68
63 146 88 215 l13 37 -109 0 -108 0 -26 -78z"/>
<path d="M7992 2461 c-60 -68 -120 -111 -203 -143 l-59 -23 0 -42 0 -43 160 0
160 0 0 155 c0 85 -2 155 -4 155 -1 0 -26 -26 -54 -59z"/>
<path d="M8431 2484 c-12 -15 -21 -34 -21 -44 0 -10 9 -29 21 -44 41 -52 129
-20 129 47 0 64 -89 92 -129 41z"/>
<path d="M8720 2362 l0 -152 50 0 c41 0 50 3 50 18 0 18 -85 270 -94 280 -3 3
-6 -63 -6 -146z"/>
<path d="M3729 2413 c-50 -111 -79 -182 -79 -193 0 -6 25 -10 60 -10 l60 0 0
135 c0 74 -2 135 -5 135 -3 0 -20 -30 -36 -67z"/>
<path d="M4440 2347 l0 -138 158 3 157 3 0 24 c0 19 -10 27 -61 46 -99 37
-165 85 -227 165 l-27 35 0 -138z"/>
<path d="M3942 2437 c-12 -13 -22 -35 -22 -48 0 -31 38 -69 69 -69 28 0 71 42
71 70 0 28 -43 70 -73 70 -13 0 -33 -10 -45 -23z"/>
<path d="M5319 2339 c-42 -22 -108 -47 -147 -57 -67 -16 -72 -19 -72 -44 l0
-28 154 0 155 0 3 85 c2 53 -1 85 -7 84 -5 -1 -44 -19 -86 -40z"/>
<path d="M7070 2296 l0 -86 160 0 160 0 0 35 c0 30 -4 35 -27 41 -121 26 -173
43 -280 91 -10 4 -13 -16 -13 -81z"/>
<path d="M7625 2278 c-27 -5 -89 -6 -137 -4 l-88 6 0 -35 0 -35 160 0 160 0 0
40 c0 45 -2 46 -95 28z"/>
<path d="M4770 2235 c0 -18 5 -25 20 -25 15 0 20 7 20 25 0 18 -5 25 -20 25
-15 0 -20 -7 -20 -25z"/>
<path d="M5048 2254 c-12 -11 5 -45 21 -42 24 5 27 48 3 48 -10 0 -21 -3 -24
-6z"/>
<path d="M2920 2190 c0 -14 77 -204 105 -261 22 -42 29 -49 55 -49 l30 0 0
160 0 160 -95 0 c-55 0 -95 -4 -95 -10z"/>
<path d="M3136 2133 c-12 -47 -16 -96 -14 -158 l3 -90 54 0 55 0 12 73 c10 62
41 175 60 227 5 13 -6 15 -73 15 l-79 0 -18 -67z"/>
<path d="M3630 2175 c-18 -47 -49 -180 -56 -238 l-7 -58 89 3 88 3 13 85 c7
47 12 118 13 158 l0 72 -65 0 c-61 0 -66 -2 -75 -25z"/>
<path d="M3886 2169 c-20 -24 -26 -41 -26 -81 0 -43 4 -54 33 -83 55 -55 128
-59 181 -10 23 22 26 31 26 95 0 97 -14 110 -114 110 -71 0 -75 -2 -100 -31z"/>
<path d="M4114 2162 c8 -52 60 -233 75 -260 12 -22 17 -23 124 -20 l112 3 3
158 3 157 -162 0 -162 0 7 -38z"/>
<path d="M4440 2040 l0 -161 158 3 157 3 3 158 3 157 -161 0 -160 0 0 -160z"/>
<path d="M4770 2040 l0 -161 158 3 157 3 3 158 3 157 -161 0 -160 0 0 -160z"/>
<path d="M5100 2040 l0 -160 153 0 c85 0 156 2 158 4 2 2 3 74 1 160 l-3 156
-154 0 -155 0 0 -160z"/>
<path d="M5430 2040 l0 -160 109 0 108 0 49 53 49 52 -3 108 -3 107 -155 0
-154 0 0 -160z"/>
<path d="M5760 2105 c0 -52 2 -95 4 -95 6 0 136 176 136 184 0 3 -31 6 -70 6
l-70 0 0 -95z"/>
<path d="M6188 2088 c2 -62 8 -130 13 -150 10 -37 44 -68 59 -51 4 4 12 58 19
118 7 61 15 129 18 153 l6 42 -60 0 -59 0 4 -112z"/>
<path d="M6587 2143 c34 -53 115 -165 135 -188 4 -5 8 48 8 118 l0 127 -90 0
-90 0 37 -57z"/>
<path d="M6740 2070 c0 -119 2 -134 22 -160 l22 -30 138 0 138 0 0 160 0 160
-160 0 -160 0 0 -130z"/>
<path d="M7072 2043 l3 -158 158 -3 157 -3 0 161 0 160 -160 0 -161 0 3 -157z"/>
<path d="M7402 2043 l3 -158 158 -3 157 -3 0 161 0 160 -160 0 -161 0 3 -157z"/>
<path d="M7732 2043 l3 -158 155 0 155 0 3 158 3 157 -161 0 -161 0 3 -157z"/>
<path d="M8390 2110 c0 -88 1 -91 26 -100 36 -14 61 -12 100 6 60 29 92 112
64 165 -9 17 -22 19 -100 19 l-90 0 0 -90z"/>
<path d="M8720 2040 l0 -160 66 0 67 0 -6 138 c-8 185 -7 182 -73 182 l-54 0
0 -160z"/>
<path d="M9176 2133 c20 -104 18 -152 -11 -198 -13 -22 -25 -43 -25 -47 0 -5
45 -8 100 -8 l99 0 16 30 c11 22 15 62 15 160 l0 130 -103 0 -104 0 13 -67z"/>
<path d="M9380 2078 c0 -67 2 -119 4 -117 7 9 126 228 126 233 0 3 -29 6 -65
6 l-65 0 0 -122z"/>
<path d="M3120 1798 c1 -52 9 -98 29 -158 l28 -85 56 -3 c52 -3 57 -1 57 18 0
25 5 25 37 0 17 -13 41 -20 69 -20 l44 0 0 60 0 60 -64 65 c-35 36 -74 81 -87
100 -24 34 -25 35 -96 35 l-73 0 0 -72z"/>
<path d="M3568 1838 c-8 -54 8 -159 34 -223 l24 -60 70 0 69 0 -1 60 c-1 33
-5 104 -9 158 l-8 97 -87 0 -88 0 -4 -32z"/>
<path d="M3934 1851 c-50 -31 -77 -77 -82 -141 -5 -62 9 -99 51 -138 22 -21
32 -23 108 -20 l84 3 0 155 0 155 -65 3 c-50 2 -72 -2 -96 -17z"/>
<path d="M4200 1865 c0 -13 81 -189 114 -248 37 -67 38 -68 74 -65 l37 3 3
158 3 157 -116 0 c-63 0 -115 -2 -115 -5z"/>
<path d="M4440 1710 l0 -161 158 3 157 3 3 158 3 157 -161 0 -160 0 0 -160z"/>
<path d="M4770 1710 l0 -161 158 3 157 3 3 158 3 157 -161 0 -160 0 0 -160z"/>
<path d="M5100 1710 l0 -160 74 0 73 0 84 60 84 59 -3 101 -3 100 -155 0 -154
0 0 -160z"/>
<path d="M5430 1773 l0 -97 33 30 c17 16 64 60 104 97 l71 67 -104 0 -104 0 0
-97z"/>
<path d="M6835 1829 c40 -42 212 -189 220 -189 3 0 5 52 5 115 l0 115 -132 0
-132 0 39 -41z"/>
<path d="M7072 1748 l3 -122 55 -38 54 -39 101 3 100 3 3 158 3 157 -161 0
-161 0 3 -122z"/>
<path d="M7402 1713 l3 -158 155 0 155 0 3 158 3 157 -161 0 -161 0 3 -157z"/>
<path d="M7732 1713 l3 -158 137 -2 c137 -1 138 -1 158 24 18 23 20 41 20 159
l0 134 -160 0 -161 0 3 -157z"/>
<path d="M8060 1745 c0 -69 2 -125 4 -125 7 0 82 122 115 188 l31 62 -75 0
-75 0 0 -125z"/>
<path d="M8239 1838 c-31 -43 -38 -132 -14 -182 22 -46 72 -85 119 -93 l36 -6
0 157 0 156 -59 0 c-56 0 -61 -2 -82 -32z"/>
<path d="M8390 1714 l0 -157 36 6 c47 8 97 47 119 93 24 50 17 139 -14 182
-21 30 -26 32 -82 32 l-59 0 0 -156z"/>
<path d="M8718 1723 l-2 -148 -5 110 c-6 101 -8 110 -26 113 -17 2 -23 -7 -38
-65 -10 -37 -28 -91 -41 -120 -14 -28 -22 -54 -18 -57 3 -3 86 -6 184 -6 l179
0 45 30 44 31 0 79 c0 44 -2 80 -5 80 -3 0 -33 -23 -67 -51 -68 -54 -166 -114
-174 -106 -3 3 2 27 11 54 17 48 44 167 45 191 0 8 -20 12 -65 12 l-65 0 -2
-147z"/>
<path d="M9087 1832 l-37 -38 0 -88 0 -88 25 16 c35 23 37 21 34 -31 l-3 -48
47 0 48 0 38 100 c21 55 50 123 64 152 15 29 27 55 27 58 0 3 -46 5 -103 5
l-103 0 -37 -38z"/>
<path d="M4110 1702 l0 -162 23 15 c38 25 67 87 67 144 0 59 -15 93 -59 135
l-31 30 0 -162z"/>
<path d="M3452 1608 l3 -53 73 -3 c45 -2 72 1 72 8 0 5 -4 10 -8 10 -5 0 -39
20 -76 45 l-67 45 3 -52z"/>
<path d="M3781 1440 l0 -135 49 -37 c47 -36 53 -38 127 -38 60 0 74 3 65 12
-21 21 -13 28 33 28 l45 0 0 73 0 73 -77 12 c-188 31 -180 27 -213 90 l-29 57
0 -135z"/>
<path d="M3180 1537 c0 -1 9 -34 20 -72 11 -38 20 -70 20 -70 0 -1 -22 -18
-50 -39 -47 -36 -50 -41 -50 -82 0 -57 22 -59 76 -7 l39 37 3 -37 3 -37 70 0
69 0 -6 28 c-3 15 -10 42 -15 61 -10 42 1 58 47 67 33 6 34 8 34 51 0 51 10
48 -88 27 -26 -5 -29 -3 -41 35 l-12 41 -59 0 c-33 0 -60 -1 -60 -3z"/>
<path d="M3450 1470 l0 -70 53 0 c67 0 159 -24 216 -56 24 -13 45 -24 47 -24
2 0 4 50 4 110 l0 110 -160 0 -160 0 0 -70z"/>
<path d="M4390 1500 c17 -22 34 -40 36 -40 2 0 4 18 4 40 0 39 -1 40 -36 40
l-36 0 32 -40z"/>
<path d="M4441 1380 l-1 -160 48 19 c26 10 98 35 160 55 l112 38 0 104 0 104
-159 0 -160 0 0 -160z"/>
<path d="M4770 1436 l0 -104 93 34 c50 19 122 49 160 66 66 30 67 32 67 69 l0
39 -160 0 -160 0 0 -104z"/>
<path d="M5100 1505 l0 -36 31 17 c17 8 45 24 63 35 l31 19 -62 0 -63 0 0 -35z"/>
<path d="M7211 1536 c12 -10 161 -86 169 -86 6 0 10 20 10 45 l0 45 -92 0
c-50 0 -89 -2 -87 -4z"/>
<path d="M7400 1490 l0 -51 48 -20 c26 -11 98 -38 160 -59 l112 -39 0 109 0
110 -160 0 -160 0 0 -50z"/>
<path d="M7732 1429 l3 -112 125 -43 c69 -24 140 -43 158 -44 l32 0 0 110 0
110 -32 1 c-18 1 -43 4 -56 7 l-22 7 31 38 30 37 -136 0 -136 0 3 -111z"/>
<path d="M8558 1524 c-9 -9 -49 -24 -90 -34 l-73 -17 -3 -121 -3 -122 27 0
c17 0 45 16 78 44 57 48 152 111 191 126 23 9 25 14 25 75 l0 65 -68 0 c-49 0
-72 -4 -84 -16z"/>
<path d="M8720 1479 c0 -59 1 -61 23 -55 88 24 145 27 211 12 88 -21 86 -21
86 17 0 30 -5 34 -58 56 -44 19 -79 25 -159 28 l-103 4 0 -62z"/>
<path d="M9078 1510 c-28 -28 -28 -31 -28 -154 l0 -126 29 0 c29 0 31 3 42 60
7 36 16 59 23 57 6 -2 31 -28 55 -58 44 -54 45 -54 110 -59 l66 -5 3 -163 3
-163 26 3 c32 4 41 26 42 113 1 82 -42 189 -100 251 -67 72 -71 76 -129 127
l-53 48 15 50 16 49 -46 0 c-38 -1 -52 -6 -74 -30z"/>
<path d="M8295 1460 c-27 -5 -92 -9 -142 -9 l-93 -1 0 -110 0 -110 103 0 102
0 -45 27 -45 28 80 12 c107 17 112 15 75 -29 l-31 -38 40 0 41 0 0 120 c0 135
8 124 -85 110z"/>
<path d="M4110 1338 l0 -78 43 0 c39 -1 41 -2 23 -15 -18 -13 -5 -15 117 -15
l137 0 0 94 0 95 -160 -2 -160 -2 0 -77z"/>
<path d="M3060 1265 l-34 -35 42 0 c41 0 42 1 42 35 0 19 -4 35 -8 35 -4 0
-23 -16 -42 -35z"/>
<path d="M8990 1281 c0 -11 -3 -26 -6 -35 -5 -13 1 -16 25 -16 28 0 31 3 31
29 0 17 -6 31 -16 35 -26 10 -34 7 -34 -13z"/>
<path d="M2963 1148 c-46 -69 -70 -127 -73 -179 -4 -73 -10 -69 103 -69 l102
1 -38 20 c-21 11 -41 27 -44 35 -9 25 14 86 57 153 22 34 40 71 40 81 0 17 -7
20 -53 20 l-52 0 -42 -62z"/>
<path d="M3243 1203 c2 -5 1 -41 -4 -81 -9 -81 -34 -126 -89 -159 -20 -11 -30
-25 -30 -41 0 -22 1 -23 102 -20 l103 3 23 65 c14 39 26 100 29 153 l6 87 -72
0 c-40 0 -70 -3 -68 -7z"/>
<path d="M3939 1164 c23 -26 41 -50 41 -55 0 -4 -28 -30 -63 -57 -96 -77 -220
-227 -272 -331 -21 -42 -54 -132 -55 -148 0 -2 36 -3 79 -3 65 0 80 3 87 18 4
9 10 82 14 162 l5 145 90 3 90 3 48 47 c45 43 50 46 60 29 36 -57 36 -57 37
82 0 111 -2 132 -14 128 -8 -3 -20 1 -26 9 -9 10 -34 14 -87 14 l-75 0 41 -46z"/>
<path d="M4110 1055 l0 -155 50 0 c28 0 50 5 50 10 0 6 -16 42 -35 80 l-35 69
31 22 c17 12 76 46 132 75 l102 54 -147 0 -148 0 0 -155z"/>
<path d="M8113 1159 c48 -28 87 -55 87 -60 0 -6 -23 -53 -51 -105 l-51 -94 55
0 54 0 38 65 c21 36 41 65 45 65 3 0 21 -16 40 -35 19 -19 38 -35 42 -35 5 0
8 56 7 125 l-1 125 -177 0 -176 0 88 -51z"/>
<path d="M8980 1137 c0 -65 37 -248 54 -265 3 -3 6 72 6 166 l0 172 -30 0 -30
0 0 -73z"/>
<path d="M9050 1055 l0 -155 160 0 160 0 0 155 0 155 -55 0 -56 0 25 -43 c14
-23 32 -61 40 -84 13 -37 13 -43 -5 -73 -19 -31 -23 -32 -66 -27 -25 2 -57 13
-72 24 -39 28 -71 99 -71 155 0 47 -1 48 -30 48 l-30 0 0 -155z"/>
<path d="M8390 1027 c0 -123 6 -129 120 -125 l83 3 -43 55 c-50 64 -141 160
-152 160 -4 0 -8 -42 -8 -93z"/>
<path d="M2895 880 c-4 -6 2 -27 13 -48 23 -46 83 -81 151 -89 l51 -6 0 75 0
76 -104 1 c-65 1 -107 -2 -111 -9z"/>
<path d="M3127 883 c-4 -3 -7 -37 -7 -75 0 -67 1 -69 23 -63 43 13 106 55 136
92 17 21 31 41 31 45 0 10 -174 11 -183 1z"/>
<path d="M3784 877 c-3 -8 -3 -56 -2 -108 l3 -94 28 48 c16 26 48 72 73 102
24 30 44 57 44 60 0 3 -32 5 -70 5 -49 0 -72 -4 -76 -13z"/>
<path d="M4118 885 c-3 -3 3 -36 14 -73 10 -37 22 -106 25 -154 l6 -88 63 0
63 0 -5 53 c-7 59 -37 198 -53 240 -9 24 -15 27 -59 27 -27 0 -51 -2 -54 -5z"/>
<path d="M8093 878 c-23 -30 -33 -88 -33 -194 l0 -114 39 0 38 0 7 69 c3 37
17 107 31 155 14 47 25 88 25 91 0 11 -98 4 -107 -7z"/>
<path d="M8440 885 c0 -3 13 -26 30 -53 26 -43 70 -164 85 -234 5 -28 7 -28
81 -28 l77 0 -7 51 c-8 63 -44 161 -80 223 l-27 46 -79 0 c-44 0 -80 -2 -80
-5z"/>
<path d="M9065 870 c82 -90 313 -99 303 -12 l-3 27 -159 3 -160 3 19 -21z"/>
<path d="M3584 524 c-9 -47 1 -176 17 -237 l13 -47 79 0 79 0 -5 38 c-3 20
-13 62 -22 92 -11 40 -14 73 -9 123 l6 67 -76 0 -75 0 -7 -36z"/>
<path d="M4155 513 c-4 -26 -16 -68 -26 -92 -13 -29 -19 -67 -19 -112 l0 -69
54 0 55 0 20 56 c27 72 39 125 43 199 l3 60 -62 3 -62 3 -6 -48z"/>
<path d="M8060 423 c0 -76 3 -148 6 -160 l6 -23 283 0 282 0 26 68 c33 84 49
159 45 209 l-3 38 -71 3 -71 3 -6 -70 c-9 -108 -46 -166 -134 -210 -50 -25
-69 -26 -115 -6 -76 31 -144 134 -164 248 -6 35 -8 37 -45 37 l-39 0 0 -137z"/>
<path d="M4040 295 l-54 -55 57 0 57 0 0 55 c0 30 -1 55 -3 55 -1 0 -27 -25
-57 -55z"/>
<path d="M3630 217 c0 -31 109 -177 132 -177 4 0 8 43 8 95 l0 95 -70 0 c-51
0 -70 -4 -70 -13z"/>
<path d="M3780 129 l0 -100 35 -15 c69 -29 174 -7 251 51 33 25 34 28 34 96
l0 69 -160 0 -160 0 0 -101z"/>
<path d="M4110 163 l1 -68 33 39 c18 21 41 52 50 67 l17 29 -50 0 -51 0 0 -67z"/>
<path d="M8090 222 c0 -17 58 -89 101 -125 42 -36 118 -67 166 -67 23 0 23 2
23 100 l0 100 -145 0 c-80 0 -145 -4 -145 -8z"/>
<path d="M8390 131 l0 -100 44 15 c24 8 63 31 86 51 42 37 100 108 100 125 0
4 -52 8 -115 8 l-115 0 0 -99z"/>
</g>
</svg>
